<?xml version="1.0" encoding="UTF-8"?>
<svg enable-background="new 0 0 3000 3000" version="1.1" viewBox="0 0 3e3 3e3" xml:space="preserve" xmlns="http://www.w3.org/2000/svg">
<path d="m1764 3002h-1762c-7.9e-5 -1e3 -7.9e-5 -2e3 -1.57e-4 -3e3 1e3 -2.13e-4 2e3 -2.13e-4 3e3 -4.26e-4 2.45e-4 1e3 2.45e-4 2e3 4.89e-4 3e3 -412.33 9.77e-4 -824.67 9.77e-4 -1238 9.77e-4m-329.91-1531c0.017212-42.33 0.86133-84.681-0.20374-126.98-0.88953-35.33-10.221-68.034-34.248-95.801-30.088-34.771-66.827-53.967-113.27-53.91-114.32 0.14014-228.63 0.25403-342.95-0.052857-21.417-0.057495-41.643 3.4495-61.106 12.397-18.07 8.3071-34.706 18.885-48.222 33.295-20.504 21.859-33.193 48.267-38.885 77.597-2.3285 11.997-2.6511 24.519-2.6841 36.805-0.25641 95.322-0.30823 190.65-0.20197 285.97 0.023011 20.644-0.76886 41.502 1.7917 61.887 5.8813 46.824 26.056 85.653 68.278 110.45 25.334 14.88 51.584 25.029 81.974 24.84 113.98-0.70923 227.97-0.074951 341.96-0.49402 35.481-0.13049 67.374-12.069 94.502-35.077 35.356-29.986 53.031-68.74 53.27-114.95 0.36938-71.323 0.035522-142.65-0.004029-215.98m769.71-371.86c0.98267-5.8976 1.8586-11.815 2.9658-17.69 6.6653-35.358 10.79-70.96 10.528-107-0.074462-10.272 0.093995-20.549-0.17285-30.815-0.21582-8.2958-1.3328-16.579-1.342-24.868-0.11987-104.97-0.097412-209.94-0.15064-314.91-0.008301-15.994 1.3105-32.174-0.61499-47.947-5.7593-47.17-29.172-84.378-67.829-111.7-22.327-15.779-47.852-22.954-75.027-23.764-18.899-0.56299-37.827-0.10623-56.738-0.37286-9.2922-0.13104-18.573-1.2017-27.864-1.2698-23.849-0.17487-47.702-0.12326-71.552 0.05194-6.9591 0.051087-13.917 1.2523-20.868 1.1784-16.875-0.17941-33.745-1.1154-50.619-1.1461-15.285-0.02774-30.571 1.0224-45.858 1.0637-11.869 0.032044-23.738-0.99206-35.611-1.0935-6.9534-0.059448-13.909 0.98264-20.873 1.1471-9.5752 0.2262-19.172-0.23145-28.736 0.17245-25.467 1.0755-48.981 8.7974-70.639 22.053-22.04 13.489-39.065 31.957-51.505 54.472-13.302 24.076-19.127 50.013-19.193 77.597-0.22974 95.936-0.92017 191.87-1.4009 287.81-0.088379 17.661-0.60144 35.349 0.18713 52.975 0.53064 11.861 1.7761 23.978 4.9481 35.354 3.3608 12.054 8.6583 23.735 14.373 34.934 17.774 34.835 45.589 58.342 82.658 70.806 14.578 4.9016 29.453 7.7548 44.99 7.7676 58.29 0.048462 116.58 0.5072 174.87 0.74036 10.374 0.041504 11.586 1.6527 7.7466 11.359-3.5482 8.9696-6.6072 18.176-10.785 26.843-5.1919 10.772-9.9984 22.13-17.296 31.405-16.622 21.127-33.755 41.853-54.193 59.74-17.214 15.066-35.592 27.617-56.54 36.876-41.345 18.274-84.152 28.95-129.62 27.81-6.2532-0.15674-12.657 0.51672-18.794 1.7698-26.241 5.358-54.422 27.112-54.623 63.65-0.32556 59.314-0.10217 118.63-0.1355 177.95-0.005371 9.5587 2.3502 18.5 7.2262 26.662 10.785 18.055 25.478 31.211 47.353 32.482 33.286 1.9338 66.651 0.82654 99.579-4.2369 42.413-6.522 84.331-15.827 124.59-31.076 21.132-8.0046 42.086-16.706 62.4-26.575 16.712-8.1187 32.423-18.318 48.468-27.78 31.954-18.846 60.524-42.194 87.608-67.329 11.928-11.07 23.225-22.962 33.724-35.396 15.636-18.517 31.599-36.977 45.116-57.017 24.963-37.012 46.408-75.939 61.906-118.22 11.15-30.418 20.813-61.036 27.351-94.458m-206.37 503.16c-17.229 7.0271-34.501 13.952-51.676 21.11-17.746 7.3956-21.178 25.125-15.156 40.051 4.2275 10.479 8.9473 20.802 14.128 30.844 12.649 24.518 25.698 48.83 38.577 73.23 4.9684 9.4125 9.3951 19.159 14.992 28.18 7.7806 12.541 23.411 19.016 37.312 14.292 18.525-6.2955 36.867-13.442 54.566-21.757 14.906-7.0026 20.702-24.863 14.422-40.034-4.322-10.442-9.1072-20.734-14.349-30.745-16.974-32.414-34.234-64.679-51.425-96.98-8.593-16.146-21.552-22.136-41.392-18.19m67.514 261.1c-21.347 6.9386-33.628 21.24-40.084 43.076-8.7559 29.613-19.99 58.506-30.536 87.572-8.9797 24.75-19.477 48.844-33.461 71.27-6.848 10.982-13.753 21.93-20.582 32.924-13.333 21.465-26.224 43.2-43.962 61.573-8.9695 9.29-17.11 19.376-25.717 29.021-5.9786 6.6995-11.678 13.734-18.274 19.778-11.757 10.774-24.257 20.732-36.162 31.351-25.474 22.721-54.053 41.031-83.511 57.865-16.993 9.7107-34.811 18.268-52.968 25.581-27.136 10.93-54.593 21.281-82.503 29.989-17.668 5.5129-36.36 7.8599-54.681 11.133-17.241 3.0803-31.813 10.624-40.647 25.911-7.903 13.675-9.1263 28.9-5.9064 44.507 7.1215 34.519 14.487 68.998 20.832 103.66 5.5403 30.267 32.248 52.462 60.83 48.477 13.802-1.9238 27.504-4.7825 41.11-7.8489 31.54-7.1077 62.527-16.388 92.549-28.236 25.665-10.128 50.387-22.626 75.664-33.762 27.226-11.994 52.427-27.494 76.701-44.454 20.44-14.281 40.459-29.206 60.131-44.532 13.886-10.818 27.389-22.244 40.165-34.347 26.589-25.19 52.102-51.366 75.133-80.031 19.828-24.678 39.307-49.597 56.195-76.292 15.282-24.156 29.274-49.2 42.59-74.507 11.616-22.077 22.604-44.622 31.89-67.755 14.621-36.427 27.59-73.517 38.058-111.41 4.073-14.744 9.0566-29.268 8.0742-44.964-1.1812-18.87-12.924-42.789-35.829-47.518-5.2014-1.0736-10.297-2.7186-15.38-4.295-15.865-4.9192-31.788-9.6744-47.525-14.979-16.45-5.5444-32.788-11.223-52.192-8.7539m-1218.4-1095.9c-5.1796 6.9192-10.331 13.86-15.544 20.753-13.236 17.501-26.629 34.884-39.712 52.498-10.303 13.871-20.303 27.969-30.31 42.057-5.1949 7.3134-11.22 14.311-14.937 22.346-9.3018 20.106-4.2481 40.251 14.016 56.486 12.424 11.043 25.179 21.713 37.76 32.579 10.316 8.91 20.404 18.096 30.932 26.747 18.683 15.353 40.663 14.323 57.449-2.7781 5.7981-5.9072 11.061-12.435 15.932-19.14 29.319-40.355 58.612-80.732 87.596-121.33 21.246-29.758 42.036-59.842 62.963-89.827 6.8532-9.8199 12.818-13.221 22.384-9.9332 5.0176 1.7242 9.7891 5.6735 13.377 9.7558 9.4261 10.725 18.026 22.172 27.167 33.154 16.163 19.417 32.486 38.7 48.737 58.042 12.828 15.269 25.666 30.531 38.47 45.82 15.15 18.09 30.224 36.242 45.415 54.298 10.488 12.467 21.121 24.812 31.682 37.218 12.286 14.433 24.534 28.899 36.859 43.298 7.3461 8.5819 14.772 17.096 22.23 25.581 10.759 12.241 21.771 24.266 32.326 36.68 13.529 15.911 44.112 18.464 60.71 0.92993 21.971-23.209 44.258-46.132 66.868-68.718 15.311-15.295 20.126-51.561-1.1082-67.179-1.0564-0.7771-1.8961-1.8711-2.7622-2.8813-19.259-22.465-38.429-45.006-57.787-67.384-11.53-13.328-23.457-26.312-35.019-39.612-20.07-23.087-39.99-46.303-59.983-69.456-14.99-17.359-29.965-34.732-45.002-52.049-11.556-13.309-23.218-26.527-34.8-39.814-15.726-18.041-31.358-36.165-47.147-54.15-16.849-19.193-31.479-40.16-51.453-56.819-34.144-28.478-73.172-38.929-116.3-33.888-35.655 4.1682-65.778 20.561-89.293 48.063-7.7678 9.085-14.943 18.691-22.139 28.247-18.601 24.702-37.095 49.484-55.566 74.283-11.126 14.937-22.129 29.966-34.014 46.122m372.42 1198.8c-123.99-0.018433-247.97-0.039917-371.96-0.049195-8.1636-6.1e-4 -15.784 2.0037-22.918 6.0713-20.201 11.519-31.316 28.834-31.578 52.066-0.41626 36.99-0.057862 73.989 0.03717 110.98 0.030274 11.76 3.9347 22.429 11.07 31.527 10.88 13.871 23.944 23.961 43.187 22.417 8.2748-0.66357 16.654 0.022705 24.986 0.019287 169.32-0.068847 338.63-0.14526 507.95-0.23071 29.368-0.014892 53.049-19.989 53.967-49.211 1.3076-41.587 1.4758-83.333-0.71802-124.86-1.3754-26.038-23.409-48.651-54.04-48.609-52.661 0.072876-105.32-0.077881-159.98-0.12427m620.46-179.3c-0.089478-21.98-0.22034-43.961-0.25403-65.941-0.021972-14.418-3.613-27.795-12.732-39.052-10.445-12.894-25.154-16.926-40.971-17.118-12.96-0.1571-25.93 0.81482-38.897 0.87402-9.6078 0.043823-19.218-0.81665-28.828-0.85254-30.972-0.11584-61.946-0.063477-92.918-0.007202-5.6359 0.010254-11.272 0.52588-16.907 0.49683-20.301-0.10461-40.666-1.4193-60.885-0.2279-20.352 1.1991-37.276 9.9861-45.109 30.428-2.2087 5.7637-2.9789 12.309-3.2368 18.544-0.60559 14.635-0.65674 29.299-0.65137 43.951 0.008301 22.916-0.20215 45.848 0.6593 68.737 0.26636 7.0773 2.9894 14.35 5.8638 20.98 5.8829 13.569 17.165 21.005 31.35 23.65 7.1395 1.3317 14.557 1.5995 21.85 1.6149 71.604 0.15015 143.21 0.14685 214.81 0.18359 5.6616 0.00293 11.325 0.056641 16.985-0.043945 25.586-0.4541 44.458-17.908 48.01-43.405 1.8716-13.43 1.3148-27.198 1.8597-42.813m-17.886 158.29c-9.7435-7.0536-20.596-10.515-32.658-10.508-70.983 0.044312-141.97-0.045776-212.95 0.079346-11.963 0.021118-23.942 0.59778-35.882 1.392-24.626 1.6379-41.568 23.126-41.703 44.39-0.092652 14.598-0.2273 29.195-0.21936 43.793 0.012207 22.661-0.57397 45.352 0.38684 67.975 1.1212 26.4 16.045 47.028 43.456 50.271 6.8306 0.80835 13.913-0.8169 20.874-0.75195 27.305 0.25488 54.606 0.89355 81.911 1.0649 11.969 0.075195 23.942-0.84009 35.916-0.93384 21.237-0.16602 42.477-0.019775 63.715-0.058105 15.996-0.028809 31.994-0.021973 47.987-0.29712 4.2695-0.073487 8.8335-0.32959 12.732-1.8567 22.626-8.8643 33.363-22.233 33.824-47.651 0.64648-35.647 0.58508-71.317 0.15698-106.97-0.097412-8.1127-1.8756-16.614-4.866-24.148-2.218-5.5889-7.6495-9.9021-12.681-15.792m-328.76-1335.5c28.744-60.604 8.5031-146.8-66.311-178.25-62.991-26.48-140.23-5.6563-173.01 61.276-35.427 72.334-3.3483 148.26 60.848 179.77 64.587 31.693 145.74 6.5732 178.48-62.794m757.99 1064.2c-6.9292-12.895-13.98-25.725-20.76-38.698-10.612-20.308-21.251-40.608-31.485-61.107-9.3271-18.683-25.851-23.887-42.516-18.993-18.395 5.4025-36.089 13.487-53.599 21.476-7.9773 3.6398-12.803 10.945-14.852 20.166-2.0249 9.1162-0.14551 17.162 3.8665 25.022 16.622 32.564 33.257 65.122 50.068 97.589 5.3457 10.324 10.753 20.678 17.031 30.441 8.0354 12.497 21.606 18.047 35.455 13.468 18.904-6.2496 37.423-13.734 55.837-21.342 3.9497-1.6318 7.4944-5.5636 9.9341-9.2831 7.4934-11.425 7.9658-23.831 2.6418-36.234-3.1331-7.2991-7.1318-14.227-11.622-22.504z" fill="#fff"/>
<path d="m1434.1 1472c0.037598 72.325 0.37146 143.65 0.002076 214.98-0.23926 46.207-17.914 84.96-53.27 114.95-27.128 23.008-59.021 34.947-94.502 35.077-113.98 0.41907-227.97-0.21521-341.96 0.49402-30.39 0.18909-56.64-9.9601-81.974-24.84-42.222-24.799-62.397-63.628-68.278-110.45-2.5605-20.385-1.7687-41.243-1.7917-61.887-0.10626-95.323-0.054443-190.65 0.20197-285.97 0.033081-12.286 0.35565-24.808 2.6841-36.805 5.6924-29.33 18.381-55.738 38.885-77.597 13.516-14.41 30.152-24.988 48.222-33.295 19.463-8.9475 39.689-12.454 61.106-12.397 114.32 0.30688 228.63 0.19299 342.95 0.052857 46.439-0.056885 83.178 19.139 113.27 53.91 24.027 27.767 33.359 60.471 34.248 95.801 1.0651 42.303 0.22095 84.654 0.20569 127.98z" fill="#01CB92"/>
<path d="m2203.7 1100c-6.4348 32.569-16.098 63.187-27.248 93.605-15.498 42.281-36.943 81.207-61.906 118.22-13.517 20.04-29.48 38.5-45.116 57.017-10.5 12.434-21.796 24.327-33.724 35.396-27.084 25.135-55.654 48.483-87.608 67.329-16.045 9.4629-31.757 19.662-48.468 27.78-20.314 9.8688-41.268 18.57-62.4 26.575-40.255 15.249-82.174 24.554-124.59 31.076-32.928 5.0635-66.293 6.1708-99.579 4.2369-21.875-1.2709-36.567-14.427-47.353-32.482-4.876-8.1625-7.2316-17.104-7.2262-26.662 0.033326-59.316-0.19006-118.63 0.1355-177.95 0.20056-36.538 28.382-58.292 54.623-63.65 6.137-1.2531 12.54-1.9265 18.794-1.7698 45.473 1.14 88.28-9.5363 129.62-27.81 20.948-9.2585 39.326-21.81 56.54-36.876 20.438-17.887 37.57-38.613 54.193-59.74 7.2979-9.2756 12.104-20.633 17.296-31.405 4.1774-8.6667 7.2363-17.873 10.785-26.843 3.8395-9.7061 2.627-11.317-7.7466-11.359-58.29-0.23315-116.58-0.69189-174.87-0.74036-15.538-0.012818-30.412-2.866-44.99-7.7676-37.069-12.464-64.884-35.972-82.658-70.806-5.7146-11.199-11.012-22.88-14.373-34.934-3.172-11.376-4.4175-23.493-4.9481-35.354-0.78858-17.626-0.27551-35.314-0.18713-52.975 0.48071-95.935 1.1711-191.87 1.4009-287.81 0.06604-27.584 5.8907-53.521 19.193-77.597 12.44-22.516 29.465-40.984 51.505-54.472 21.659-13.255 45.172-20.977 70.639-22.053 9.5638-0.4039 19.161 0.053742 28.736-0.17245 6.9637-0.16449 13.92-1.2066 20.873-1.1471 11.873 0.10144 23.742 1.1256 35.611 1.0935 15.287-0.04129 30.573-1.0914 45.858-1.0637 16.873 0.03067 33.743 0.96668 50.619 1.1461 6.9508 0.073883 13.909-1.1273 20.868-1.1784 23.85-0.1752 47.703-0.22681 71.552-0.05194 9.2904 0.068084 18.572 1.1387 27.864 1.2698 18.911 0.26663 37.839-0.19012 56.738 0.37286 27.175 0.80954 52.699 7.9846 75.027 23.764 38.658 27.32 62.07 64.529 67.829 111.7 1.9255 15.773 0.60669 31.953 0.61499 47.947 0.053223 104.97 0.030762 209.94 0.15064 314.91 0.009277 8.2894 1.1262 16.572 1.342 24.868 0.26685 10.266 0.098389 20.543 0.17285 30.815 0.26172 36.038-3.8625 71.64-10.528 107-1.1072 5.8741-1.9832 11.792-3.0693 18.543m-621.71-558.45c-0.66589 8.2474-1.8981 16.494-1.9106 24.742-0.13879 90.988-0.11218 181.98-0.022461 272.96 0.004883 4.9208 1.4706 9.8498 1.3832 14.759-0.21826 12.264-1.0919 24.515-1.413 36.779-0.27881 10.657 1.0214 21.495-0.48084 31.951-2.5927 18.045 1.1697 34.098 11.046 49.055 1.4656 2.2195 3.7321 4.2594 4.2695 6.6836 2.7048 12.197 11.018 20.85 18.344 30.14 2.6617 3.3751 5.1387 7.0942 8.4379 9.7339 13.641 10.914 26.625 22.626 43.882 28.35 12.64 4.1926 25.085 8.9906 38.463 9.2159 61.905 1.0428 123.84-1.64 185.74 1.9108 7.5541 0.43347 14.245 1.3743 20.03 6.616-3.9301 15.396-7.8341 30.69-11.852 46.432-1.1299 0.054444-3.3081 0.15942-5.0112 0.24146-6.4543 12.184-12.589 23.764-18.038 34.051-3.9337 3.4194-7.2419 5.8444-9.9891 8.792-3.8378 4.1177-6.8158 9.1075-10.936 12.878-13.425 12.286-23.682 27.876-39.415 37.753-1.3644 0.85669-2.3496 2.3448-3.4453 3.5972-6.3878 7.301-11.804 15.928-23.163 16.236-1.1493 0.031128-2.34 1.1931-3.3846 1.9954-6.079 4.6683-12.577 8.4904-19.999 10.686-0.87341 0.25842-1.3346 1.9114-2.7312 4.0663 5.4828 0.56604 9.8156 1.0133 15.588 1.6091-2.1401 0.7041-2.7706 1.1108-3.382 1.0837-15.694-0.69495-30.93 0.57324-45.973 6.1711-13.276 4.9408-27.323 7.7784-40.912 11.928-3.2428 0.99023-6.6832 5.6333-8.8939 4.9438-8.5769-2.6743-16.439 1.4969-24.672 1.1508-9.9808-0.41968-19.993-0.04834-29.992-0.1012-13.883-0.073242-25.841 4.8481-36.311 13.759-1.765 1.5024-3.5676 2.9689-5.4316 4.3453-9.163 6.7673-13.796 15.652-13.928 27.212-0.10193 8.9204-1.2091 17.827-1.7671 26.746-0.18701 2.9883-0.62537 6.1266 0.028687 8.9717 2.2817 9.9266 3.0166 19.674-1.1366 29.318-0.36731 0.85327-0.28894 1.9482-0.24194 2.9225 0.38342 7.9427 0.93347 15.88 1.1962 23.826 0.63623 19.251 1.5098 38.506 1.5839 57.762 0.054687 14.251-1.3805 28.507-1.3525 42.76 0.01001 5.0736 1.3765 10.714 3.8828 15.088 4.3894 7.6592 10.003 14.641 15.351 21.721 6.8416 9.057 16.718 11.756 27.369 11.579 26.25-0.43604 52.502-1.0251 78.734-2.0524 9.8752-0.38672 19.743-1.8505 29.531-3.3635 12.418-1.9196 24.819-4.0758 37.102-6.7141 11.205-2.4066 22.242-5.5931 33.238-8.4065v-6.8025c6.8307 0 13.114 0.16211 19.384-0.063354 3.5123-0.12634 7.0841-0.578 10.478-1.4624 3.4567-0.90051 6.7114-2.5574 10.085-3.8018 5.561-2.0513 11.213-3.871 16.706-6.0898 7.9382-3.207 15.808-6.5924 23.634-10.065 13.151-5.8362 26.246-11.801 40.98-18.439-3.7594-2.859-6.0952-4.6354-8.7229-6.6338 4.0055 0 7.7402 0.46362 11.308-0.11035 5.1672-0.83154 11.733-0.84802 14.989-4.0081 6.3822-6.1935 15.453-9.2156 20.088-17.311 0.35718-0.62378 1.5394-1.1013 2.3357-1.0978 9.27 0.042114 15.151-7.0607 21.76-11.528 13.128-8.8746 24.691-20.028 37.333-29.675 4.7408-3.6174 8.49-7.2654 8.8324-11.415 4.6565-2.3226 8.3982-3.3116 10.878-5.6428 3.2822-3.0851 4.985-7.9301 8.3999-10.78 14.33-11.96 26.194-26.251 38.488-40.099 4.5332-5.1064 7.9658-11.405 10.899-17.631 1.5991-3.3937 1.0278-7.7864 1.6318-11.698 0.087158-0.56506 1.2778-0.95984 2.0327-1.4856 0.94336 2.9204 1.7664 5.4694 3.325 10.295 3.3425-5.1932 5.6196-8.3103 7.4485-11.672 2.7949-5.1361 4.0315-12.115 8.2207-15.239 4.9563-3.6967 5.875-8.2991 7.9561-12.977 1.0081-2.2655 2.9346-4.1323 4.5007-6.1362 1.4062-1.7993 2.8813-3.5448 4.3376-5.3046 6.5925-7.9655 7.7939-18.016 10.241-27.822 7.8835-0.40332 10.743-6.0839 13.072-12.033 2.2686-5.7959 3.9751-11.809 6.1492-17.645 1.7007-4.5647 5.1399-8.9554 5.2964-13.51 0.22827-6.6434 5.7949-11.005 5.7373-17.38 7.7053-7.2417 7.821-18.071 12.501-26.79 1.9219-3.5807 2.1145-8.3309 2.2561-12.577 0.32227-9.655 0.053467-19.329 0.21069-28.992 0.027099-1.6785 0.96558-3.3422 1.6418-5.5243 2.6843 2.0673 4.626 3.5625 7.0955 5.4641 1.156-3.3311 2.3921-5.75 2.8105-8.3031 1.6047-9.785 2.9331-19.615 4.3921-29.424 1.2629-8.4934 1.7485-17.206 4.0176-25.425 4.7402-17.168 5.7114-34.839 5.6052-52.229-0.69165-113.24 2.6094-226.49-1.4939-339.72-0.70288-19.391 1.196-38.871 1.6804-58.316 0.10596-4.2679-0.7019-8.5576-1.0759-12.839-0.2002-2.2969-0.96997-4.7397-0.45776-6.8702 2.6211-10.903 1.3528-21.577-0.08252-32.555-4.531-34.654-21.285-63.018-43.853-88.572-12.633-14.304-29.682-22.034-46.305-30.326-1.1641-0.58054-2.5088-0.8833-3.8054-1.0991-14.06-2.3388-28.09-4.4501-42.467-4.2678-11.571 0.14673-23.155-1.2453-34.743-1.7109-3.611-0.14511-7.2493 0.65219-10.883 0.76303-10.152 0.30972-20.309 0.68707-30.462 0.6283-4.9254-0.028534-9.8414-1.3833-14.769-1.4299-19.214-0.18152-38.43-0.081543-57.646-0.083069-22.664-0.001831-45.327-0.001159-67.991-6.1e-5 -22.997 0.001129-46.011-0.54315-68.986 0.16174-22.516 0.69083-44.949-1.4719-67.502-0.55933-14.147 0.57242-27.61 3.0394-41.13 6.4068-5.9496 1.4818-9.8065 4.6002-9.0897 11.213-6.6523 0.71719-13.501-0.026031-18.945 2.3915-8.0531 3.5756-15.355 9.0622-22.534 14.337-11.534 8.4746-18.049 21.125-25.463 32.842-8.094 12.791-16.26 25.716-18.727 41.147-0.20862 1.305-0.62878 2.5763-1.0165 5.6312z" fill="#E185AF"/>
<path d="m1998.2 1602.1c19.036-3.7797 31.995 2.2112 40.588 18.357 17.191 32.301 34.451 64.565 51.425 96.98 5.2422 10.011 10.027 20.304 14.349 30.745 6.2795 15.171 0.48389 33.031-14.422 40.034-17.7 8.3149-36.042 15.461-54.566 21.757-13.901 4.7242-29.531-1.7512-37.312-14.292-5.5972-9.0211-10.024-18.767-14.992-28.18-12.879-24.4-25.928-48.712-38.577-73.23-5.1807-10.042-9.9004-20.365-14.128-30.844-6.022-14.926-2.5895-32.655 15.156-40.051 17.175-7.1578 34.446-14.083 52.479-21.276z" fill="#51A8F3"/>
<path d="m2065.8 1863.2c18.597-2.2545 34.935 3.4242 51.385 8.9686 15.737 5.3041 31.66 10.059 47.525 14.979 5.0837 1.5764 10.179 3.2214 15.38 4.295 22.904 4.7288 34.647 28.648 35.829 47.518 0.98242 15.696-4.0012 30.22-8.0742 44.964-10.469 37.896-23.437 74.986-38.058 111.41-9.2856 23.133-20.274 45.679-31.89 67.755-13.316 25.307-27.308 50.351-42.59 74.507-16.888 26.696-36.367 51.614-56.195 76.292-23.032 28.665-48.544 54.841-75.133 80.031-12.775 12.103-26.279 23.529-40.165 34.347-19.671 15.325-39.691 30.25-60.131 44.532-24.274 16.96-49.475 32.46-76.701 44.454-25.277 11.136-49.999 23.634-75.664 33.762-30.022 11.848-61.01 21.128-92.549 28.236-13.605 3.0664-27.308 5.925-41.11 7.8489-28.582 3.9846-55.29-18.21-60.83-48.477-6.3452-34.664-13.711-69.144-20.832-103.66-3.22-15.607-1.9966-30.832 5.9064-44.507 8.8347-15.288 23.406-22.831 40.647-25.911 18.321-3.2727 37.013-5.6196 54.681-11.133 27.91-8.7083 55.367-19.059 82.503-29.989 18.157-7.313 35.975-15.87 52.968-25.581 29.458-16.834 58.037-35.144 83.511-57.865 11.905-10.618 24.404-20.577 36.162-31.351 6.5955-6.0435 12.295-13.078 18.274-19.778 8.6071-9.6445 16.748-19.731 25.717-29.021 17.739-18.373 30.629-40.108 43.962-61.573 6.8293-10.994 13.734-21.941 20.582-32.924 13.984-22.426 24.481-46.52 33.461-71.27 10.546-29.066 21.78-57.959 30.536-87.572 6.4565-21.836 18.737-36.137 40.891-43.291m-130.91 255.37c-0.94568 1.8135-1.8914 3.627-3.7227 5.8738-0.54895 0.4082-0.91712 0.94116-2.3392 2.2107-3.582 5.7886-7.1641 11.577-11.273 18.531-0.53272 1.5925-1.0654 3.1848-2.8617 4.9714-0.88354 1.2847-1.7671 2.5691-2.6456 3.8538 0 0-0.004883-7.32e-4 -1.1653 0.55273-0.95581 1.8084-1.9116 3.6167-2.8347 5.4473 0 0-0.022827-0.032471-1.3367 0.091553-2.2084 1.9729-4.4167 3.9456-7.7212 6.657-2.8296 3.2529-5.6073 6.5525-8.4987 9.7495-7.7937 8.6174-17.143 16.272-23.081 26.013-7.5834 12.44-18.456 20.735-29.306 29.352-15.802 12.55-31.872 24.764-47.949 36.962-7.6279 5.7874-15.394 11.419-23.361 16.725-6.5703 4.375-13.819 7.7561-20.257 12.299-13.054 9.2107-26.639 17.192-41.694 22.807-16.439 6.1321-32.575 13.074-48.883 19.564-15.617 6.2148-31.257 12.374-46.939 18.421-9.4731 3.6533-18.986 7.1221-29.376 7.4109-4.2455 0.11792-8.4684 1.2214-12.691 1.9402-3.5736 0.6084-7.1185 1.7788-10.699 1.8787-10.367 0.28955-20.551 1.7551-29.543 6.9524-14.207 8.2114-23.966 20.007-24.622 37.175-0.573 14.979 1.2717 29.727 6.1194 44.066 2.3136 6.8433 4.1903 13.892 5.5717 20.982 4.2249 21.687 8.6984 43.353 11.946 65.195 2.5477 17.133 21.26 32.188 34.359 35.058 8.1772 1.792 17.248 0.7583 25.73-0.3916 12.371-1.6765 24.632-4.3337 36.827-7.0759 8.9945-2.0229 17.952-4.4294 26.671-7.4111 14.65-5.0103 28.833-11.406 44.423-13.398 3.8716-0.49438 7.6755-2.0391 11.344-3.5149 19.905-8.0066 40.175-15.311 57.172-29.077 1.2178-0.98633 3.0874-1.1746 4.661-1.7134 8.0449-2.7549 16.16-5.323 24.115-8.3152 5.5836-2.1001 11.34-4.1565 16.344-7.3066 16.198-10.2 32.227-20.686 48.053-31.455 17.537-11.934 35.431-23.484 51.986-36.685 21.204-16.908 41.604-34.887 61.616-53.207 11.699-10.71 22.245-22.736 32.815-34.61 14.979-16.826 29.501-34.059 45.582-51.347 2.2074-3.9312 4.4147-7.8623 7.0675-12.664 0.40088-0.54175 0.91894-0.92456 2.8696-1.3145 2.877-3.2781 5.7542-6.5564 8.6807-9.8149 0 0-0.001954-0.052734 0.8667-0.44653 0.54346-0.38281 0.90064-0.89551 1.1162-2.5452 0.006836-0.33594 0.013916-0.67188 1.1472-1.5183 1.6018-1.8301 3.2036-3.6602 4.8821-6.9719 0.66772-1.8247 1.0232-3.8525 2.0549-5.4409 5.8933-9.0713 11.947-18.038 19.228-27.219 0.89331-1.2864 1.7869-2.5725 3.2668-5.1182 5.1636-9.5488 10.327-19.097 16.855-28.915 0.87207-1.9414 1.7441-3.8826 2.6494-6.7778 0 0-0.009277-0.95459 1.3708-1.2361 3.5261-5.6138 8.1084-10.718 8.5666-17.812 0 0 0.009766 0.011475 1.2378-0.61401 0.92725-2.4639 1.8545-4.9277 2.8084-8.3484 0 0-0.009034-0.95728 1.2673-1.1677 0.88892-1.2932 1.7778-2.5864 2.6865-3.8699 0 0-0.009766-0.019531 1.2722-0.6731 0.91894-3.1079 1.8379-6.2158 3.6152-10.455 1.6553-1.9282 3.8357-3.6135 4.8606-5.833 2.4397-5.2842 4.2959-10.836 6.4548-16.252 4.606-11.557 9.2544-23.098 15.277-34.97 1.5034-3.939 3.0071-7.8782 4.5491-13.298 0.012207-1.4807 0.02417-2.9617 1.1316-5.3018 4.3025-11.726 8.6052-23.453 13.94-36.011 0.31348-1.7167 0.62671-3.4332 2.1577-5.814 1.5459-3.7969 3.0918-7.5938 4.7405-12.992 2.7053-12.781 5.4106-25.562 9.2861-38.984 1.5542-3.1387 3.1082-6.2772 4.8696-10.93 0.59888-3.4948 1.1978-6.9894 1.8413-12.271 1.8855-11.386-3.1621-21.123-7.592-30.939-0.66382-1.4709-2.8777-2.2423-4.5112-4.7194-6.0073-10.631-15.107-16.087-27.312-16.706-2.877-0.146-5.7053-1.2572-9.5137-3.007-13.016-3.6206-26.032-7.2412-40.377-10.914-0.88672-0.005493-1.7737-0.010986-3.8059-0.84241-0.65723-0.74268-1.1689-1.7972-1.9932-2.1819-14.247-6.6477-29.172-10.689-44.941-8.8398-13.418 1.5737-22.687 10.7-31.577 19.906-0.72034 0.74609-0.33838 2.5566-1.8363 4.1525-0.84729 1.9573-1.6946 3.9147-3.3992 6.2931-0.53748 0.39197-0.8866 0.91064-1.0991 2.9006-0.007202 0.89697-0.014526 1.7941-1.0781 3.5009-0.30798 1.7209-0.61584 3.4419-0.99792 6.7421-1.3464 5.4662-2.6929 10.932-5.0887 17.181-1.6055 3.0836-3.2109 6.1672-5.0426 10.772-1.3027 5.4888-2.6053 10.978-4.4004 17.632-0.50024 1.5869-1.0005 3.1738-2.9194 5.0874-1.5037 4.5851-3.0073 9.17-5.1331 14.99-1.1172 2.9282-2.2344 5.8564-4.3512 9.4359-0.32312 1.1171-0.64612 2.234-1.1748 4.7954-0.64099 2.8075-1.2819 5.6149-3.176 9.1423-2.2358 5.7827-4.4717 11.565-7.9564 18.033-2.5697 5.2532-5.2045 10.476-7.6927 15.767-3.0588 6.5051-5.9954 13.068-9.0316 20.583 0 0-0.01001 0.97852-1.3821 1.2175-0.86938 1.9363-1.7388 3.8728-2.6409 6.7744 0 0 0.002197 0.96582-1.2755 1.1628-0.89722 1.2876-1.7946 2.5752-3.2188 4.9514-1.1632 1.6321-2.3264 3.2644-4.3566 5.3276-0.54394 0.39697-0.90234 0.9209-1.3284 2.9438-4.6178 7.5242-9.3666 14.972-13.798 22.604-2.2424 3.8623-7.1323 6.4416-7.3451 12.175-0.88318 1.2866-1.7664 2.5735-3.8076 4.4197z" fill="#74ACDB"/>
<path d="m846.99 766.95c11.472-15.572 22.475-30.601 33.601-45.538 18.471-24.799 36.965-49.581 55.566-74.283 7.1959-9.5563 14.372-19.162 22.139-28.247 23.515-27.502 53.639-43.895 89.293-48.063 43.123-5.0414 82.151 5.4097 116.3 33.888 19.975 16.66 34.604 37.626 51.453 56.819 15.789 17.986 31.421 36.109 47.147 54.15 11.582 13.287 23.244 26.505 34.8 39.814 15.037 17.318 30.013 34.69 45.002 52.049 19.993 23.154 39.913 46.37 59.983 69.456 11.562 13.3 23.49 26.284 35.019 39.612 19.358 22.378 38.528 44.92 57.787 67.384 0.86609 1.0103 1.7058 2.1042 2.7622 2.8813 21.234 15.619 16.419 51.884 1.1082 67.179-22.61 22.586-44.897 45.509-66.868 68.718-16.598 17.534-47.181 14.981-60.71-0.92993-10.555-12.414-21.567-24.438-32.326-36.68-7.4578-8.485-14.884-16.999-22.23-25.581-12.326-14.399-24.573-28.865-36.859-43.298-10.561-12.406-21.194-24.751-31.682-37.218-15.19-18.056-30.265-36.208-45.415-54.298-12.804-15.289-25.642-30.551-38.47-45.82-16.251-19.343-32.574-38.626-48.737-58.042-9.1416-10.982-17.741-22.429-27.167-33.154-3.5879-4.0823-8.3594-8.0316-13.377-9.7558-9.5657-3.2874-15.531 0.11328-22.384 9.9332-20.927 29.985-41.717 60.069-62.963 89.827-28.984 40.596-58.277 80.972-87.596 121.33-4.8718 6.7058-10.134 13.233-15.932 19.14-16.786 17.102-38.766 18.131-57.449 2.7781-10.528-8.6512-20.616-17.837-30.932-26.747-12.581-10.866-25.336-21.536-37.76-32.579-18.264-16.234-23.318-36.379-14.016-56.486 3.7171-8.0348 9.7426-15.033 14.937-22.346 10.007-14.088 20.007-28.186 30.31-42.057 13.083-17.614 26.476-34.998 39.712-52.498 5.2136-6.8934 10.365-13.834 15.958-21.338m126.94 122.08c6.4033-8.4391 13.044-16.711 19.141-25.366 5.6338-7.998 10.306-16.684 16.083-24.568 8.1737-11.154 16.982-21.843 25.494-32.751 1.0029-1.2852 2.9402-3.2087 2.5856-3.9661-2.5015-5.3428 2.5326-6.8816 4.6099-9.8052 2.8408-3.9983 5.9946-7.7726 8.9312-11.705 5.0754-6.7963 20.85-12.163 27.635-8.2082 8.5334 4.9736 17.011 10.714 21.669 19.858 7.6876 15.09 18.855 26.898 32.323 36.826 1.4917 1.0997 3.2582 2.7139 3.589 4.3534 1.811 8.9763 9.2462 14.153 14.022 21.054 5.5775 8.0592 11.82 15.832 18.763 22.735 12.749 12.676 23.139 27.251 34.665 40.905 15.612 18.495 31.358 36.877 47.065 55.292 4.9491 5.8026 9.9788 11.536 14.932 17.336 10.505 12.299 20.924 24.671 31.488 36.919 14.024 16.259 28.121 32.455 42.26 48.614 3.4662 3.9614 7.2811 7.616 10.814 11.521 2.1609 2.3883 4.058 5.0132 6.1312 7.4834 4.6401 5.5289 9.0377 11.299 14.066 16.453 4.0295 4.13 9.5161 6.9498 13.098 11.371 2.9602 3.6539 5.9474 4.8013 10.183 4.6664 4.3273-0.13806 8.7026-0.39502 12.986 0.062134 8.7521 0.9342 15.275-3.2062 21.13-8.7789 6.6842-6.3617 13.21-12.9 19.598-19.56 12.396-12.924 24.451-26.18 37.021-38.93 10.379-10.528 15.631-24 22.346-36.66 0.44336-0.83582 0.90381-1.9419 0.72314-2.787-2.1398-10.011-5.0056-19.858-11.172-28.167-12.2-16.44-28.135-29.676-39.815-46.685-5.7507-8.3749-13.708-15.206-20.35-23.005-11.105-13.04-21.886-26.356-32.933-39.446-14.842-17.586-31.491-33.56-45.773-51.674-8.1425-10.327-18.273-18.831-26.095-29.691-8.4268-11.698-19.329-21.614-29.04-32.186-2.4617 1.1147-4.4509 2.0154-7.1637 3.2438-0.39356-2.3689-0.96448-3.9313-0.84912-5.4415 0.45728-5.991-1.0002-10.349-6.3363-14.429-5.5396-4.2358-9.4723-10.6-14.009-16.114-6.776-8.2368-14.02-15.831-25.123-19.24 1.2588-3.8217 1.1077-7.1252-2.054-10.611-5.5215-6.0865-9.6707-13.434-15.287-19.415-6.7019-7.1365-14.405-13.326-21.544-20.063-2.6395-2.4913-6.0918-4.9806-7.1486-8.1466-5.6865-17.037-19.474-27.742-30.639-40.49-2.8317-3.2329-5.6111-6.7249-9.0779-9.1489-10.87-7.6009-21.902-15.001-33.181-21.977-6.5769-4.0676-13.822-5.8962-21.839-3.827-4.3571 1.1246-9.0518 0.94006-14.392 1.4172 2.5594-2.5744 4.3746-4.4001 6.6652-6.704-20.253-7.1196-39.609-6.1263-58.984-2.8504-3.7471 0.63348-7.4807 1.8632-9.8077 6.0152-2.2599 4.0322-6.1345 5.0133-11.181 3.8627-3.4943-0.79669-7.9183 0.15741-11.308 1.6944-8.0358 3.6436-15.722 8.0645-23.498 12.267-1.1188 0.60486-2.2133 1.5818-2.8705 2.66-4.0613 6.663-12.543 9.3161-15.348 17.255-0.66138 1.8721-3.5418 2.8618-5.1147 4.528-5.5026 5.8295-11.31 11.445-16.19 17.769-5.4277 7.033-9.6581 14.981-14.963 22.12-8.975 12.078-18.448 23.785-27.593 35.74-8.1813 10.695-15.936 21.727-24.361 32.223-10.311 12.845-17.504 28.064-29.982 39.243-0.73523 0.65869-1.3705 1.4661-1.916 2.2942-7.9146 12.016-15.816 24.039-25.311 34.911-1.3065 1.4956-2.5408 3.0643-3.6983 4.6783-11.662 16.263-23.193 32.621-35.002 48.777-4.4647 6.1083-9.9522 11.484-14.255 17.692-5.0419 7.2736-10.808 13.968-13.425 23.042-1.5559 5.3951-5.6711 9.5439-6.8114 16.19-3.0478 17.765 6.0579 30.016 17.049 40.127 18.219 16.76 38.445 31.329 56.125 48.8 0.94061 0.92944 1.9548 2.2758 3.0815 2.4437 6.0146 0.89648 9.5992 5.4769 14.131 8.6864 7.3198 5.1845 15.223 8.3526 24.258 4.3449 10.287-4.563 20.258-9.8585 27.175-18.977 8.5395-11.257 15.596-23.717 24.761-34.398 9.1754-10.693 15.512-23.204 24.85-33.898 12.476-14.289 22.131-31.041 33.995-47.8z" fill="#AB94D9"/>
<path d="m1220 1966.3c53.661 0.051635 106.32 0.20239 158.98 0.12952 30.632-0.04248 52.665 22.571 54.04 48.609 2.1938 41.528 2.0256 83.274 0.71802 124.86-0.91858 29.222-24.599 49.196-53.967 49.211-169.32 0.08545-338.63 0.16187-507.95 0.23071-8.332 0.003418-16.712-0.68286-24.986-0.019287-19.243 1.5437-32.307-8.5461-43.187-22.417-7.1357-9.0979-11.04-19.767-11.07-31.527-0.095032-36.995-0.45343-73.994-0.03717-110.98 0.26141-23.232 11.377-40.547 31.578-52.066 7.1336-4.0676 14.754-6.0719 22.918-6.0713 123.99 0.009278 247.97 0.030762 372.96 0.043946m200.03 200.52c5.5507-8.1248 9.2913-17.231 9.7411-26.867 0.78101-16.731 0.10999-33.526 0.3346-50.29 0.075073-5.5959 1.5677-11.189 1.4744-16.768-0.24976-14.924-1.494-29.844-1.3815-44.758 0.067383-8.9097-1.7218-17.184-4.9534-25.209-6.49-16.116-17.759-27.697-35.197-30.565-12.681-2.0856-25.781-2.1782-38.689-2.1195-8.187 0.037231-16.363-0.050538-24.545-0.061402-158.59-0.21082-317.18-0.19397-475.77-0.038452-6.1892 0.006104-12.722 0.91064-18.499 3.0234-16.314 5.9659-25.523 19.335-33.06 34.08-0.59662 1.167-1.1518 2.4645-1.2773 3.7452-0.80713 8.233-2.0394 16.473-2.1121 24.72-0.24957 28.318 0.43317 56.652-0.29871 84.953-0.33087 12.792 2.3734 24.669 7.7209 35.66 8.2043 16.862 19.719 28.105 41.372 28.033 178.25-0.5935 356.5-0.41797 534.74-0.19214 15.784 0.020019 28.001-6.655 40.399-17.346z" fill="#18B78D"/>
<path d="m1839.5 1788c-0.54224 14.615 0.014526 28.384-1.8571 41.813-3.553 25.497-22.425 42.951-48.01 43.405-5.66 0.10059-11.323 0.046875-16.985 0.043945-71.604-0.036743-143.21-0.033447-214.81-0.18359-7.2932-0.015381-14.71-0.2832-21.85-1.6149-14.186-2.6458-25.468-10.081-31.35-23.65-2.8744-6.6302-5.5974-13.903-5.8638-20.98-0.86145-22.889-0.651-45.821-0.6593-68.737-0.005371-14.652 0.045776-29.316 0.65137-43.951 0.25794-6.2351 1.0281-12.78 3.2368-18.544 7.8336-20.442 24.757-29.229 45.109-30.428 20.22-1.1914 40.584 0.12329 60.885 0.2279 5.6345 0.029053 11.271-0.48657 16.907-0.49683 30.973-0.056275 61.946-0.10864 92.918 0.007202 9.6105 0.035889 19.22 0.89636 28.828 0.85254 12.967-0.059204 25.937-1.0311 38.897-0.87402 15.818 0.19153 30.526 4.224 40.971 17.118 9.119 11.257 12.71 24.634 12.732 39.052 0.033692 21.98 0.16455 43.961 0.25134 66.941m-6.8904 37.151c0.48401-3.2601 1.3777-6.5189 1.3886-9.7806 0.10107-30.325 0.26636-60.652-0.1156-90.973-0.090454-7.1801-1.5627-14.503-3.4993-21.454-1.9272-6.9185-3.8145-14.151-9.6322-19.297-11.879-10.509-25.865-14.51-41.46-13.49-7.5913 0.49646-15.165 1.2633-22.754 1.7953-24.824 1.7405-49.65-2.8098-74.483-0.026001-1.9551 0.21924-3.9871-0.11011-5.9705-0.31116-4.9269-0.49976-9.8605-1.6324-14.766-1.5106-14.255 0.35352-28.502 1.7828-42.746 1.7092-19.916-0.10303-39.823-1.4332-59.741-1.7136-7.2307-0.10156-14.577 0.82263-21.686 2.2209-3.7134 0.73059-6.9348 3.7087-10.541 5.3046-4.1755 1.8478-5.2605 5.0887-4.5797 7.6346-3.1219 0.68823-6.4215 0.40662-7.7362 1.8873-4.6665 5.2559-7.9738 11.369-8.2666 18.734-0.6062 15.249-1.9636 30.498-1.851 45.738 0.19385 26.243-1.7949 52.534 1.8052 78.731 2.9772 21.664 12.241 35.02 36.783 35.3 82.3 0.94019 164.62 0.30396 246.93 0.43311 17.035 0.026855 29.235-7.7058 37.045-22.284 2.7655-5.1617 3.7216-11.293 5.8773-18.648z" fill="#74ACDB"/>
<path d="m1822.1 1945.8c4.5159 5.3855 9.9474 9.6987 12.165 15.288 2.9904 7.5343 4.7686 16.036 4.866 24.148 0.4281 35.652 0.4895 71.321-0.15698 106.97-0.46118 25.418-11.199 38.787-33.824 47.651-3.8981 1.5271-8.462 1.7832-12.732 1.8567-15.993 0.27515-31.99 0.26831-47.987 0.29712-21.239 0.03833-42.478-0.10791-63.715 0.058105-11.974 0.09375-23.947 1.009-35.916 0.93384-27.305-0.17139-54.607-0.81006-81.911-1.0649-6.9614-0.064942-14.044 1.5603-20.874 0.75195-27.411-3.2432-42.334-23.871-43.456-50.271-0.96082-22.623-0.37463-45.314-0.38684-67.975-0.007934-14.598 0.12671-29.196 0.21936-43.793 0.13501-21.265 17.076-42.752 41.703-44.39 11.94-0.79419 23.919-1.3708 35.882-1.392 70.983-0.12512 141.97-0.035034 212.95-0.079346 12.063-0.007446 22.915 3.4543 33.174 11.012m-318.11 85.18c0.10815 12.177-0.57214 24.433 0.63513 36.5 0.66968 6.6938 1.6998 13.011-0.36328 19.567-0.44214 1.4048 0.36365 3.2317 0.69177 4.8442 1.056 5.188 2.0131 10.402 3.2731 15.541 2.2172 9.0437 7.007 17.365 14.881 21.471 8.2971 4.3269 17.613 7.304 27.665 7.2324 40.639-0.28955 81.282-0.10229 121.92-0.10303 38.309-4.88e-4 76.631 0.57861 114.92-0.22363 27.706-0.58057 41.658-15.051 44.1-39.384 2.0511-20.433 1.7684-41.111 2.2517-61.686 0.28931-12.319-0.087402-24.652 0.1117-36.975 0.21741-13.456-1.0299-26.206-9.5338-37.69-7.4208-10.021-15.835-17.538-28.795-18.083-7.202-0.30322-14.437 0.18958-21.64-0.097656-11.251-0.44861-22.495-1.8826-33.731-1.7778-22.574 0.21069-45.138 1.4402-67.712 1.707-9.2361 0.10925-18.49-1.7213-27.734-1.7002-10.103 0.022949-20.204 1.6814-30.305 1.6781-10.245-0.003418-20.494-1.7625-30.733-1.6777-14.577 0.12048-29.193 0.71936-43.705 2.0548-12.848 1.182-23.487 7.0372-29.702 18.977-4.5195 8.6815-6.2318 18.19-6.4343 27.86-0.27905 13.319-0.069336 26.649-0.068969 41.965z" fill="#74ACDB"/>
<path d="m1492.5 610.51c-32.408 68.69-113.56 93.81-178.15 62.116-64.197-31.502-96.275-107.43-60.848-179.77 32.781-66.932 110.02-87.755 173.01-61.276 74.814 31.449 95.055 117.64 65.985 178.93m-30.763 32.526c4.7458-4.6696 9.5758-9.2582 14.196-14.049 1.8173-1.8845 3.6094-4.0333 4.6132-6.4009 1.2234-2.8863 1.0958-6.3862 2.4888-9.1486 1.4814-2.938 4.5195-5.0857 6.0321-8.0151 1.6416-3.1791 1.9274-7.0419 3.4663-10.293 6.8916-14.56 5.5701-30.402 7.1779-45.745 0.53662-5.1213-0.73242-10.539-1.78-15.698-2.5582-12.599-3.8901-25.612-11.722-36.572-1.7096-2.3922-2.8273-5.222-4.1122-7.9008-6.0714-12.659-14.686-23.352-25.215-32.54-1.4336-1.2509-3.5563-1.754-4.8801-3.0818-7.7338-7.756-16.465-13.649-27.412-15.857-1.9148-0.38611-3.7206-1.395-5.5273-2.2237-13.443-6.1662-27.77-9.1893-42.341-9.2384-11.145-0.037567-22.275 2.6232-33.454 3.6156-19.266 1.7104-35.143 10.439-49.178 23.086-4.6311 4.1731-8.3212 9.6473-13.455 12.951-10.265 6.6053-16.544 16.072-21.651 26.57-2.4438 5.024-3.9993 10.475-6.0491 15.697-7.4739 19.037-7.9315 38.912-6.6315 58.885 0.51172 7.8599 1.7449 15.792 3.722 23.412 3.9589 15.259 13.658 27.694 22.199 40.458 8.868 13.252 21.288 22.56 35.375 30.847 14.064 8.2733 28.036 14.361 44.036 16.53 30.336 4.1143 59.338 1.9636 86.33-14.68 8.8505-5.4572 16.808-11.185 23.771-20.608z" fill="#AB94D9"/>
<path d="m2251.2 1674.6c4.0496 7.6862 8.0483 14.614 11.181 21.913 5.324 12.403 4.8516 24.809-2.6418 36.234-2.4397 3.7195-5.9844 7.6512-9.9341 9.2831-18.414 7.608-36.933 15.093-55.837 21.342-13.848 4.5784-27.419-0.97144-35.455-13.468-6.2773-9.7628-11.685-20.117-17.031-30.441-16.812-32.466-33.447-65.024-50.068-97.589-4.012-7.8604-5.8914-15.906-3.8665-25.022 2.0486-9.2211 6.8745-16.526 14.852-20.166 17.51-7.9888 35.204-16.073 53.599-21.476 16.666-4.8945 33.189 0.30945 42.516 18.993 10.234 20.5 20.873 40.799 31.485 61.107 6.7793 12.973 13.831 25.804 21.2 39.29m-106.04-108.74c-4.1064 2.005-8.0637 4.4401-12.349 5.9294-10.315 3.5848-20.868 6.4296-29.65 13.479-8.1511 6.5427-11.318 15.102-8.6799 24.78 2.3394 8.5826 6.1455 16.86 10.079 24.893 6.8523 13.995 14.328 27.684 21.487 41.531 3.4961 6.7621 6.3484 13.917 10.398 20.321 9.1726 14.503 18.465 28.745 24.77 44.98 4.853 12.497 15.585 18.109 28.964 15.921 20.214-3.3064 38.519-11.647 56.044-21.811 9.1863-5.328 15.774-21.215 12.846-31.23-1.6653-5.6947-4.1199-11.304-7.0977-16.442-8.4404-14.565-17.272-28.905-26.092-43.245-2.1372-3.475-5.8901-6.2726-7.0671-9.9657-4.5229-14.191-9.1064-28.253-16.995-41.069-4.1516-6.7454-7.2253-14.16-11.459-20.847-2.2014-3.4772-5.3728-7.5673-8.959-8.7146-11.518-3.6848-23.395-4.4207-36.24 1.4907z" fill="#74ACDB"/>
<path d="m1582 540.66c0.35474-2.1709 0.7749-3.4422 0.98352-4.7472 2.4662-15.431 10.633-28.357 18.727-41.147 7.4143-11.717 13.929-24.367 25.463-32.842 7.1791-5.275 14.481-10.762 22.534-14.337 5.4447-2.4175 12.293-1.6743 18.945-2.3915-0.7168-6.613 3.1401-9.7314 9.0897-11.213 13.52-3.3674 26.983-5.8344 41.13-6.4068 22.553-0.91257 44.986 1.2502 67.502 0.55933 22.975-0.7049 45.989-0.16061 68.986-0.16174 22.664-0.001098 45.327-0.00177 67.991 6.1e-5 19.216 0.001526 38.432-0.098449 57.646 0.083069 4.9271 0.04654 9.8431 1.4013 14.769 1.4299 10.153 0.058777 20.31-0.31857 30.462-0.6283 3.6337-0.11084 7.272-0.90814 10.883-0.76303 11.588 0.46561 23.172 1.8576 34.743 1.7109 14.378-0.18231 28.407 1.929 42.467 4.2678 1.2966 0.21576 2.6414 0.51852 3.8054 1.0991 16.624 8.2911 33.673 16.022 46.305 30.326 22.568 25.554 39.322 53.918 43.853 88.572 1.4353 10.978 2.7036 21.652 0.08252 32.555-0.51221 2.1305 0.25757 4.5734 0.45776 6.8702 0.37402 4.2809 1.1819 8.5706 1.0759 12.839-0.48438 19.444-2.3833 38.924-1.6804 58.316 4.1033 113.23 0.80225 226.48 1.4939 339.72 0.1062 17.39-0.86499 35.061-5.6052 52.229-2.269 8.2184-2.7546 16.931-4.0176 25.425-1.459 9.8092-2.7874 19.639-4.3921 29.424-0.41846 2.5531-1.6545 4.972-2.8105 8.3031-2.4695-1.9016-4.4111-3.3968-7.0955-5.4641-0.67627 2.1821-1.6147 3.8458-1.6418 5.5243-0.15723 9.6631 0.11157 19.337-0.21069 28.992-0.1416 4.2462-0.33423 8.9965-2.2561 12.577-4.6799 8.719-4.7957 19.548-12.501 26.79 0.057617 6.375-5.509 10.736-5.7373 17.38-0.15649 4.5542-3.5957 8.9449-5.2964 13.51-2.1741 5.8357-3.8806 11.849-6.1492 17.645-2.3286 5.9496-5.1885 11.63-13.072 12.033-2.4473 9.8052-3.6487 19.856-10.241 27.822-1.4563 1.7598-2.9314 3.5052-4.3376 5.3046-1.5662 2.0039-3.4927 3.8707-4.5007 6.1362-2.0811 4.6779-2.9998 9.2803-7.9561 12.977-4.1892 3.1245-5.4258 10.103-8.2207 15.239-1.8289 3.3612-4.106 6.4783-7.4485 11.672-1.5586-4.826-2.3816-7.375-3.325-10.295-0.75488 0.52576-1.9456 0.92053-2.0327 1.4856-0.604 3.9117-0.032715 8.3044-1.6318 11.698-2.9336 6.2261-6.3662 12.524-10.899 17.631-12.294 13.849-24.158 28.139-38.488 40.099-3.4149 2.8502-5.1177 7.6952-8.3999 10.78-2.4801 2.3312-6.2218 3.3202-10.878 5.6428-0.34241 4.1493-4.0916 7.7972-8.8324 11.415-12.641 9.6465-24.205 20.8-37.333 29.675-6.6086 4.4675-12.49 11.57-21.76 11.528-0.79626-0.00354-1.9785 0.474-2.3357 1.0978-4.6353 8.0958-13.706 11.118-20.088 17.311-3.2561 3.16-9.8219 3.1765-14.989 4.0081-3.5676 0.57397-7.3024 0.11035-11.308 0.11035 2.6277 1.9984 4.9635 3.7748 8.7229 6.6338-14.734 6.6388-27.829 12.603-40.98 18.439-7.8264 3.473-15.696 6.8584-23.634 10.065-5.4922 2.2189-11.145 4.0386-16.706 6.0898-3.3732 1.2444-6.6279 2.9012-10.085 3.8018-3.394 0.8844-6.9658 1.3361-10.478 1.4624-6.2694 0.22546-12.553 0.063354-19.384 0.063354v6.8025c-10.996 2.8134-22.033 5.9999-33.238 8.4065-12.283 2.6383-24.683 4.7946-37.102 6.7141-9.7876 1.5131-19.655 2.9768-29.531 3.3635-26.232 1.0272-52.484 1.6163-78.734 2.0524-10.651 0.17712-20.527-2.5222-27.369-11.579-5.3478-7.0792-10.961-14.062-15.351-21.721-2.5063-4.3735-3.8728-10.014-3.8828-15.088-0.027954-14.252 1.4072-28.509 1.3525-42.76-0.074097-19.256-0.94763-38.51-1.5839-57.762-0.2627-7.9464-0.81274-15.883-1.1962-23.826-0.046997-0.97424-0.12537-2.0692 0.24194-2.9225 4.1532-9.6444 3.4183-19.392 1.1366-29.318-0.65405-2.8451-0.2157-5.9834-0.028687-8.9717 0.55798-8.9191 1.6652-17.826 1.7671-26.746 0.13184-11.56 4.7649-20.445 13.928-27.212 1.864-1.3765 3.6666-2.8429 5.4316-4.3453 10.47-8.911 22.428-13.832 36.311-13.759 9.9984 0.052856 20.011-0.31848 29.992 0.1012 8.2335 0.34619 16.095-3.8251 24.672-1.1508 2.2107 0.68945 5.6511-3.9536 8.8939-4.9438 13.589-4.1494 27.637-6.9871 40.912-11.928 15.042-5.5979 30.279-6.8661 45.973-6.1711 0.61133 0.027099 1.2418-0.37964 3.382-1.0837-5.7721-0.59583-10.105-1.0431-15.588-1.6091 1.3966-2.1549 1.8578-3.8079 2.7312-4.0663 7.4225-2.1952 13.92-6.0172 19.999-10.686 1.0447-0.80225 2.2354-1.9642 3.3846-1.9954 11.358-0.30737 16.775-8.9347 23.163-16.236 1.0957-1.2523 2.0809-2.7405 3.4453-3.5972 15.733-9.8774 25.99-25.467 39.415-37.753 4.12-3.7709 7.098-8.7607 10.936-12.878 2.7472-2.9476 6.0554-5.3726 9.9891-8.792 5.4491-10.287 11.583-21.866 18.038-34.051 1.7031-0.082031 3.8813-0.18701 5.0112-0.24146 4.0183-15.741 7.9224-31.036 11.852-46.432-5.7855-5.2417-12.476-6.1825-20.03-6.616-61.894-3.5508-123.83-0.86792-185.74-1.9108-13.378-0.22534-25.824-5.0233-38.463-9.2159-17.257-5.7244-30.241-17.436-43.882-28.35-3.2992-2.6396-5.7761-6.3588-8.4379-9.7339-7.3258-9.2895-15.639-17.943-18.344-30.14-0.53748-2.4242-2.804-4.4641-4.2695-6.6836-9.8765-14.957-13.639-31.01-11.046-49.055 1.5022-10.456 0.20203-21.293 0.48084-31.951 0.32104-12.264 1.1947-24.515 1.413-36.779 0.087402-4.9096-1.3783-9.8386-1.3832-14.759-0.089721-90.988-0.11633-181.98 0.022461-272.96 0.012574-8.2484 1.2448-16.495 1.9436-25.626m557.12 702.37s-0.18066 0.10046 0 0z" fill="#FF6BAD"/>
<path d="m1970 2065.9s-0.002197-0.96582 0.70508-1.5579c1.5734-2.5349 2.4396-4.4783 3.3057-6.4214 0 0 0.01001-0.97852 0.76099-1.5518 3.7274-1.8796 6.6632-3.2917 9.6903-4.4685 4.4652-1.7358 8.1204-5.5963 6.9218-9.5554-2.3699-7.8274-0.44031-15.004 0.61035-22.439 2.2357-5.7826 4.4716-11.565 7.3597-16.881 1.2976 8.1302 1.2976 8.1302 9.5609 10.124 3.7339-1.2725 2.5494-7.7638 8.275-7.3052 5.8944 0.47217 6.9735-3.7136 6.8684-8.5931-0.055786-2.5981 0.26868-5.2045 0.4082-7.5825 2.6888-1.3298 4.8948-2.4209 7.3112-3.616-3.1-5.9823-10.126-9.0658-9.1244-17.354 4.6304-2.0728 9.5881-4.292 14.368-6.4316-2.3972-4.6934-4.667-9.1373-6.9938-13.693-7.3804-1.511-4.4207 6.8444-8.8595 9.3685h-5.2192c1.3026-5.4888 2.6052-10.978 4.7112-17.298 7.6489-4.944 7.7963-5.2689 5.2888-10.723 1.3464-5.4662 2.6929-10.932 4.6194-17.444 2.4015-2.6165 4.5846-4.1278 1.4742-6.506 0.007203-0.89697 0.014527-1.7941 0.46985-3.5781 0.97144-1.2866 1.3248-1.8025 1.5082-2.4347 0.84741-1.9573 1.6947-3.9147 3.2607-5.0626 0.73242 8.4688 0.6781 16.129 0.79443 23.787 0.044921 2.9575 0.063232 6.2108 3.6195 6.2341 3.1488-4.4307 5.9072-8.4388 8.8054-12.343 1.7725-2.3881 4.0269-4.4487 5.6011-6.9485 5.3379-8.4763 5.2571-8.5231 14.17-3.8425 0.86523 0.45447 1.7649 0.84351 2.6897 1.2825-0.60913 2.0847-1.1809 4.0422-2.2476 7.6936 10.947-2.2861 20.517-4.1821 30.017-6.3812 1.3914-0.32214 2.4187-2.1223 3.6685-3.1742 1.5037-1.2655 2.8843-2.936 4.6338-3.6058 7.3953-2.8306 10.071-8.155 9.0227-15.722 0.88672 0.005615 1.7737 0.011108 3.4036 0.76941 1.5476 7.3684 10.277 3.1979 12.046 9.6493-1.4631 1.8091-3.2063 3.9648-5.4797 6.7761 2.7856 1.7284 5.1697 3.2076 8.2883 5.1427 2.8533-6.4673 8.053-6.4191 13.518-6.3403 4.3953 0.063233 9.5674 1.6393 12.22-3.9838 2.8506 0.66711 5.679 1.7783 8.5559 1.9243 12.204 0.6189 21.304 6.0742 27.369 18.226 0.28076 6.9827 0.45264 12.448 0.77954 17.903 0.052491 0.87744 0.58325 2.1888 1.2566 2.4918 4.4824 2.0181 3.3887 6.8357 5.3401 10.064 1.2195 2.0167 3.062 3.6567 4.6248 5.4658-0.59888 3.4948-1.1978 6.9894-2.5913 11.313-7.6624 4.9618-7.8132 5.298-5.2451 10.741-2.7053 12.781-5.4106 25.562-8.8633 39.268-2.2354 4.86-3.7231 8.7957-5.2109 12.731-0.31323 1.7167-0.62646 3.4332-2.2122 5.5422-7.0354-0.44092-10.527-3.6261-12.771-9.1052-3.3823-8.2606-7.2478-16.35-11.39-24.26-1.6406-3.1327-4.2207-6.0261-6.9937-8.2574-4.9714-4.0009-9.4575-1.9492-10.626 4.4077-0.42603 2.3169-0.87476 4.6296-1.3127 6.9442-0.81055 0.063233-1.6211 0.12646-2.4316 0.1897-0.77295-2.2535-1.5193-4.5166-2.3274-6.7574-0.65381-1.8138-1.1506-5.015-2.1147-5.1727-6.8281-1.1173-12.74-8.2511-20.514-3.318-3.4736 2.2043-6.2566 0.98633-8.7119-2.1055 0.33106-0.89075 0.59522-1.8312 1.0149-2.6963 4.9219-10.148 3.176-13.937-7.5674-17.577-2.1716-0.73584-3.8599-2.8992-5.771-4.4044 1.5598-1.8458 3.0771-3.7302 4.6982-5.5205 0.77759-0.85864 1.752-1.5392 2.7834-2.426-1.2212-1.5259-2.0503-2.5508-2.8674-3.5848-3.3684-4.2616-7.9229-4.8179-12.644-3.4169-3.554 1.0548-4.7249 6.0779-3.74 12.33 0.53809 3.4166 0.68018 6.8958 1.042 10.786 10.502-0.30896 16.332 5.6772 20.45 16.188-3.3757 0.78784-6.2996 1.9858-9.2434 2.0381-4.5801 0.081543-9.7083 0.54761-13.637-1.2557-5.9473-2.7299-7.8591-9.856-5.5791-15.039 3.2263-7.3335 1.7329-11.705-5.791-16.95-11.457 6.5304-8.1133 5.3824-11.252 22.387 5.4722 10.355 15.95 13.908 24.313 20.033 6.6885 4.8981 6.8569 4.3593 5.5889 12.817-0.55737 3.718-0.09375 7.5891-0.09375 12.109 2.7178-0.50879 4.1531-0.41235 5.1516-1.0264 4.9832-3.0643 6.6301-7.5531 6.8828-13.449 0.13208-3.0806 2.7468-7.686 5.3372-8.6482 3.8943-1.446 8.2275 0.62842 11.128 4.5225 2.3132 3.1061 3.5508 5.9785 2.5637 10.094-0.69458 2.8964-0.781 6.9326 0.7561 9.1415 2.4048 3.4564 4.1453 6.608 3.9314 10.874-0.16968 3.3899 1.3833 5.8707 5.0002 6.3116 3.3909 0.41333 5.6262-1.0331 6.8477-4.4117 0.94946-2.6256 2.4824-5.0402 3.6968-7.4319 9.345 3.6044 9.1772 3.5958 8.7373 12.185-0.12842 2.5068 0.73975 5.1697 1.606 7.5989 1.4243 3.9952 3.0764 7.9276 4.9277 11.743 0.75977 1.5657 2.2866 2.7595 5.1753 6.1025 0.53906-4.5952 1.2771-6.9634 0.96826-9.1863-0.45117-3.2522-1.739-6.3795-2.5088-9.5986-0.70435-2.9458 0.57568-6.7957 3.2068-5.8019 5.1431 1.9426 8.447-2.3323 12.913-2.6202 4.2664 10.283-2.2644 17.237-6.7925 24.964 1.4304 2.2947 2.8132 4.5129 4.1963 6.7314-0.011962 1.4807-0.023925 2.9617-0.7644 5.3084-2.2231 4.8293-3.7178 8.7927-5.2124 12.756-4.6309 11.547-9.2793 23.088-13.885 34.646-2.1589 5.4165-4.0151 10.968-6.4548 16.252-1.0249 2.2195-3.2053 3.9048-5.8525 6.803-1.9629 4.0261-2.9341 7.0823-3.9053 10.138 0 0 0.009766 0.019531-0.64429 0.10278-1.5391 1.3879-2.4238 2.6926-3.3088 3.9973 0-2.44e-4 0.009034 0.95703-0.62109 1.7485-1.5552 3.2551-2.4807 5.7188-3.4062 8.1824 0 0-0.009766-0.011475-0.71851 0.068603-7.9414 3.97-7.9395 11.301-9.238 18.013 0 0 0.009277 0.95459-0.70532 1.5374-1.5759 2.5432-2.4375 4.5037-3.2991 6.4639-5.1638 9.5488-10.328 19.097-16.425 29.36-1.8271 2.0039-2.7205 3.2935-3.614 4.5828-5.9995 9.0022-12.053 17.969-17.947 27.04-1.0317 1.5884-1.3872 3.6162-2.8286 6.1958-5.0408 0.66943-5.3105 3.5691-5.2344 6.7273-0.007324 0.33618-0.014404 0.67212-0.4668 1.7209-0.97119 1.1003-1.3359 1.605-1.5393 2.2261 0 0 0.001954 0.052734-0.8125 0.050293-8.6638 1.1982-8.6638 1.1982-9.1814 9.9836-0.6355 0.22363-1.1536 0.60644-2.5955 1.5867-5.5156 0.064941-7.8065 1.8799-7.417 6.6057 0.15967 1.937 0.026977 3.8984 0.027099 5.8489-14.717 17.059-29.24 34.292-44.218 51.118-10.57 11.874-21.116 23.9-32.815 34.61-20.013 18.319-40.412 36.298-61.616 53.207-16.555 13.201-34.449 24.751-51.986 36.685-15.826 10.77-31.854 21.256-48.053 31.455-5.0031 3.1501-10.76 5.2065-16.344 7.3066-7.9556 2.9922-16.07 5.5603-24.115 8.3152-1.5736 0.53882-3.4432 0.72705-4.661 1.7134-16.997 13.766-37.267 21.07-57.172 29.077-3.6686 1.4758-7.4725 3.0205-11.344 3.5149-15.59 1.9924-29.773 8.3877-44.423 13.398-8.7188 2.9817-17.676 5.3882-26.671 7.4111-12.195 2.7422-24.457 5.3994-36.827 7.0759-8.4823 1.1499-17.553 2.1836-25.73 0.3916-13.098-2.8704-31.811-17.925-34.359-35.058-3.2478-21.842-7.7213-43.508-11.946-65.195-1.3813-7.0906-3.2581-14.139-5.5717-20.982-4.8477-14.339-6.6924-29.087-6.1194-44.066 0.65674-17.169 10.415-28.964 24.622-37.175 8.9915-5.1973 19.175-6.6628 29.543-6.9524 3.5804-0.099853 7.1254-1.2703 10.699-1.8787 4.2223-0.71875 8.4452-1.8223 12.691-1.9402 10.39-0.28882 19.902-3.7576 29.376-7.4109 15.682-6.0476 31.322-12.207 46.939-18.421 16.308-6.4902 32.443-13.432 48.883-19.564 15.055-5.6152 28.64-13.597 41.694-22.807 6.4386-4.543 13.687-7.9241 20.257-12.299 7.9678-5.3052 15.733-10.937 23.361-16.725 16.077-12.198 32.147-24.413 47.949-36.962 10.85-8.6169 21.722-16.912 29.306-29.352 5.9379-9.7402 15.287-17.395 23.081-26.013 2.8914-3.197 5.6691-6.4966 9.772-10.13 5.2869-0.39233 7.5819-2.2561 7.7617-6.4001 0 0 0.022827 0.032471 0.70032-0.074463 1.5575-2.0359 2.4376-3.9648 3.3176-5.8938 0 0 0.004883 7.32e-4 0.6637-0.004883 2.9923-0.40772 6.5801-0.004395 3.2505-4.0422 0.53259-1.5925 1.0653-3.1848 2.5939-5.3767 9.3237-3.7544 11.483-10.524 11.511-18.543 0.1875-0.65772 0.55566-1.1907 2.2366-1.9204 2.0043-2.2517 2.8766-4.1819 4.4097-6.1169 3.0054-0.40405 6.5742-0.018066 3.2535-4.0491-1.0521-5.5396 3.8378-8.1189 6.0802-11.981 4.4318-7.6323 9.1805-15.08 14.356-23.507 1.094-1.3044 1.4539-1.8279 1.6376-2.4727 1.1632-1.6323 2.3264-3.2646 4.3983-5.5247 1.8018-1.9253 2.6948-3.2229 3.5878-4.5205m-113.28 297.37c-2.8877 1.9243-5.7754 3.8484-9.1116 6.0715 1.6208 1.9797 2.2531 3.2295 3.269 3.877 1.4128 0.90039 3.1132 1.3496 4.6903 1.9919-2.3271 3.8032-3.1427 5.6038-3.8385 7.4497-2.5206 6.689-0.73291 9.2522 6.3105 9.3027 3.573 0.02539 6.5142-0.61401 7.9911-4.5027 0.50171-1.321 2.046-3.0852 3.219-3.1685 5.5342-0.39282 11.592-4.6646 16.454 1.9448 0.79602 1.0825 3.006 1.6743 4.5118 1.5901 6.5991-0.36914 12.035 0.40186 12.599 8.7952 0.062988 0.93799 2.3273 2.1843 3.7112 2.4041 0.81116 0.12891 2.5444-1.3496 2.7636-2.3464 2.0449-9.3059 9.2097-17.932 3.356-28.379-1.3096-2.3372-0.50525-5.8745-0.62183-8.8613-0.17908-4.5874-1.1216-8.1716-7.1085-6.2236-0.65051 0.21216-1.649-0.64502-2.5114-1.0173 3.3103-5.9775 3.5966-6.0825 7.629-5.0217 2.3574 0.62012 4.7909 1.1064 7.2168 1.2798 6.4248 0.45996 11.139-2.8342 14.546-7.9482 8.5508 7.6438 18.995 9.4072 27.22 5.1948-0.95142-7.3569-8.7023-4.2151-12.563-7.4873 0.76318-1.3352 1.0292-2.5469 1.738-2.9226 5.5958-2.9666 8.5642-6.554 6.1141-13.576-1.0806-3.0964-0.88293-9.031 1.0302-10.352 7.0303-4.855 12.747-10.492 17.634-17.495 2.1453-3.074 6.5872-4.5449 10.694-7.2019 1.281 2.1018 2.9253 4.5125 4.269 7.0801 1.5763 3.0122 3.7969 4.6272 7.2266 3.8909 0.83618-0.17944 2.2395-1.4319 2.1638-1.5835-1.0713-2.1482-2.3396-4.2-3.6007-6.2498-0.15662-0.25464-0.58728-0.32373-0.81873-0.55176-4.2086-4.1477-3.8794-8.7007 1.3395-11.191 2.8695-1.3694 6.4108-2.1885 9.5559-1.9617 9.619 0.69409 17.263-1.1323 19.624-12.034 0.10852-0.50122 0.97229-0.83862 1.9506-1.6289 2.7614 0.93457 5.8224 1.9705 9.5929 3.2466 3.8291-3.0918 7.9993-6.3137 11.976-9.7588 1.1936-1.0339 2.6238-2.6914 2.6189-4.0586-0.02124-6.1326 1.1885-13.054-1.2056-18.229-4.8816-10.552-4.0039-23.669-14.739-31.833-3.9888-3.0334-1.4603-6.6074 5.1884-7.1096 0.86926 2.9121 1.7612 5.9006 2.7318 9.1521 5.3064-0.67261 9.0336-5.0142 14.585-2.8066 2.7339 1.0872 6.3196-4.0381 5.666-7.8083-0.54077-3.1187-2.0015-6.0779-3.2402-9.6421-13.445 2.5073-25.829 9.8513-39.39 2.6782-1.1881-3.0002-3.0862-6.5642-3.9368-10.362-0.59314-2.6489-0.26428-5.7781 0.55005-8.4153 2.1769-7.0503 6.4325-10.347 14.659-9.8181 8.9493 0.5752 11.377-2.9031 11.599-12.152 0.27734-11.562 0.56689-11.898 13.108-14.918 3.6394 2.665 7.2068 8.0637 12.588 3.3115 3.4253-3.0249 5.9338-7.0879 8.7966-10.615 5.9416 9.8843 9.4299 11.672 17.12 8.1643-1.2605-1.6062-3.0071-2.9668-3.5259-4.6956-0.78784-2.6248-1.9053-6.3442-0.69702-8.0476 1.2795-1.8035 5.1074-2.3562 7.8372-2.3948 2.1401-0.030273 4.2427 1.7976 6.4729 2.3586 2.3555 0.59277 4.842 0.66235 7.387 0.97485 0.11597-8.7214-2.2141-12.001-9.2019-13.617-2.4585-0.56885-5.6885 0.26611-5.3608-3.8906 0.47412-0.5979 0.77295-1.3726 1.2898-1.5664 7.1804-2.6931 15.774-3.4136 17.189-13.652 0.17236-1.2483 2.9153-2.4446 4.6772-3.1052 3.4248-1.2842 4.3057-3.7922 4.2949-7.0593-0.01709-5.24-3.0566-6.5835-7.7412-6.9333-3.3748-0.25146-6.6587-1.7178-10.047-2.6602 0.48535-3.7212 0.81421-6.2419 1.1621-8.9087-1.5603-0.84033-2.7048-1.9998-3.8201-1.9722-9.4951 0.23462-16.019-4.7568-21.88-11.512-2.1064-2.4279-5.0959-4.2306-7.9573-5.8252-3.1829-1.7739-5.8162-0.58166-7.3047 2.728-1.6338 3.6332-2.9631 7.4126-4.7449 10.968-3.5962 7.1758-5.7676 7.7761-13.352 7.4014-6.6698-0.32959-5.3579-6.6365-8.0066-9.5776-8.1035 1.0366-8.1539 1.2336-7.4954 7.1106 0.31311 2.7947 1.0103 6.6982-0.44714 8.3237-4.3518 4.8528-9.1439 9.834-14.787 12.855-5.3705 2.8755-6.7618 5.4246-3.7653 11.372 5.0573-1.1636 10.03-2.3079 15.281-3.5161 0.36511 7.1335 0.031616 13.709 1.2164 19.999 1.1338 6.0183 0.86658 11.143-3.5275 15.574-3.3635 3.3911-3.2421 6.9705-1.1743 10.935 0.89624 1.7185 1.3953 3.6438 2.3994 6.3511-9.8416 4.9519-17.997-1.0845-25.062-2.5847-5.0232 1.99-8.7898 4.3928-12.793 4.8889-10.1 1.2532-12.177 2.2825-13.958 11.681-1.4479 7.6394-7.3705 11.892-12.274 16.52-4.8105 4.54-11.499 6.0115-18.469 6.1221-7.3643 0.1167-9.9379 5.1514-4.7572 10.326 5.123 5.1169 5.7136 9.7583 3.4012 15.807-1.2482 3.2644-1.2988 7.8359-3.6029 9.697-8.8195 7.1235-12.276 16.718-14.621 27.108-2.194 9.7192-12.211 14.552-21.392 10.634-2.9672-1.2664-6.3037-1.7788-9.5244-2.3179-8.0337-1.3455-15.45 3.698-16.723 11.658-1.0427 6.5212-1.5748 13.129-2.2035 19.71-0.62769 6.5708-6.8983 16.708-12.256 16.677-8.0411-0.04663-13.684 3.4255-19.493 8.0493-2.3392 1.8618-6.5629 1.2417-7.7393 6.0051 3.1228 1.5046 6.1765 2.9761 8.9757 4.325 0.30127 8.48-7.964 4.3254-9.936 6.6802 4.4539 12.578 8.5073 24.025 12.691 35.84 4.7744-2.1243 6.9132-9.5305 12.893-4.7195-1.2717 3.7178-2.4265 7.094-4.4496 11.683z" fill="#50A8F4"/>
<path d="m2172.6 2065.6c-1.9309-1.7888-3.3137-4.0071-4.7441-6.3018 4.5281-7.7271 11.059-14.681 6.7925-24.964-4.4658 0.28796-7.7698 4.5629-12.913 2.6202-2.6311-0.99378-3.9111 2.8561-3.2068 5.8019 0.76978 3.2191 2.0576 6.3464 2.5088 9.5986 0.30884 2.2229-0.4292 4.5911-0.96826 9.1863-2.8887-3.343-4.4155-4.5369-5.1753-6.1025-1.8513-3.8157-3.5034-7.748-4.9277-11.743-0.86621-2.4292-1.7344-5.092-1.606-7.5989 0.43994-8.5896 0.60767-8.5811-8.7373-12.185-1.2144 2.3917-2.7473 4.8063-3.6968 7.4319-1.2214 3.3787-3.4568 4.8251-6.8477 4.4117-3.6169-0.44092-5.1699-2.9218-5.0002-6.3116 0.21387-4.2656-1.5266-7.4172-3.9314-10.874-1.5371-2.2089-1.4507-6.2451-0.7561-9.1415 0.98706-4.1157-0.25049-6.9882-2.5637-10.094-2.9001-3.894-7.2334-5.9685-11.128-4.5225-2.5903 0.96216-5.2051 5.5676-5.3372 8.6482-0.25269 5.896-1.8997 10.385-6.8828 13.449-0.99854 0.61401-2.4338 0.51758-5.1516 1.0264 0-4.5199-0.46362-8.391 0.09375-12.109 1.2681-8.4579 1.0996-7.9191-5.5889-12.817-8.3638-6.1249-18.841-9.6779-24.313-20.033 3.1389-17.005-0.20483-15.857 11.252-22.387 7.5239 5.2449 9.0173 9.6165 5.791 16.95-2.28 5.1829-0.36816 12.309 5.5791 15.039 3.9292 1.8033 9.0574 1.3373 13.637 1.2557 2.9438-0.052246 5.8677-1.2502 9.2434-2.0381-4.1187-10.51-9.9485-16.497-20.45-16.188-0.36182-3.8899-0.50391-7.369-1.042-10.786-0.98486-6.2517 0.18604-11.275 3.74-12.33 4.7207-1.401 9.2751-0.84473 12.644 3.4169 0.81714 1.0341 1.6462 2.059 2.8674 3.5848-1.0315 0.88684-2.0059 1.5674-2.7834 2.426-1.6211 1.7903-3.1384 3.6747-4.6982 5.5205 1.9111 1.5052 3.5994 3.6686 5.771 4.4044 10.743 3.6399 12.489 7.4285 7.5674 17.577-0.41968 0.86511-0.68384 1.8055-1.0149 2.6963 2.4553 3.0918 5.2383 4.3098 8.7119 2.1055 7.7739-4.9331 13.686 2.2007 20.514 3.318 0.96411 0.15772 1.4609 3.3589 2.1147 5.1727 0.80811 2.2408 1.5544 4.5039 2.3274 6.7574 0.81055-0.063233 1.6211-0.12646 2.4316-0.1897 0.43799-2.3146 0.88672-4.6273 1.3127-6.9442 1.1682-6.3569 5.6543-8.4086 10.626-4.4077 2.7729 2.2313 5.353 5.1248 6.9937 8.2574 4.1421 7.9095 8.0076 15.999 11.39 24.26 2.2434 5.4791 5.7354 8.6643 12.255 9.5212-3.5466 11.75-7.8494 23.476-12.699 35.632z" fill="#56A8F6"/>
<path d="m2117.5 1881.5c1.6206 7.98-1.0547 13.304-8.45 16.135-1.7495 0.6698-3.1301 2.3403-4.6338 3.6058-1.2498 1.0519-2.2771 2.852-3.6685 3.1742-9.4998 2.1991-19.07 4.0951-30.017 6.3812 1.0667-3.6514 1.6384-5.6089 2.2476-7.6936-0.9248-0.43896-1.8245-0.828-2.6897-1.2825-8.9131-4.6805-8.8323-4.6338-14.17 3.8425-1.5742 2.4998-3.8286 4.5604-5.6011 6.9485-2.8982 3.9043-5.6566 7.9125-8.8054 12.343-3.5563-0.023316-3.5746-3.2766-3.6195-6.2341-0.11633-7.6578-0.062012-15.318-0.11072-23.927 0.095459-2.2653-0.2865-4.0758 0.43384-4.8219 8.89-9.2063 18.159-18.333 31.577-19.906 15.769-1.8495 30.694 2.1921 44.941 8.8398 0.82422 0.38464 1.3359 1.4392 2.5659 2.5948z" fill="#4BA8F6"/>
<path d="m2015.7 1958.6c2.2191-0.58288 4.1919-0.58288 5.4655-0.58288 4.4388-2.5242 1.4791-10.88 8.8595-9.3685 2.3268 4.5555 4.5966 8.9995 6.9938 13.693-4.7797 2.1396-9.7374 4.3589-14.368 6.4316-1.0015 8.2886 6.0244 11.372 9.1244 17.354-2.4164 1.1951-4.6223 2.2861-7.3112 3.616-0.13953 2.3781-0.46399 4.9844-0.4082 7.5825 0.1051 4.8795-0.974 9.0653-6.8684 8.5931-5.7256-0.45862-4.5411 6.0327-8.275 7.3052-8.2633-1.9938-8.2633-1.9938-8.9343-10.484 0.61523-3.6342 1.2561-6.4415 2.5784-10.035 3.1453-1.6182 3.6838-2.8534 1.4932-4.6605 1.1172-2.9282 2.2344-5.8564 4.3818-9.5238 5.22-4.478 5.7611-9.4009 5.5212-14.577 0.50049-1.5869 1.0007-3.1738 1.7472-5.3436z" fill="#4BA8F6"/>
<path d="m2161.5 1893.4c-2.1736 6.1643-7.3457 4.5883-11.741 4.525-5.4648-0.078735-10.665-0.12695-13.518 6.3403-3.1187-1.9351-5.5027-3.4143-8.2883-5.1427 2.2734-2.8113 4.0166-4.967 5.4797-6.7761-1.7686-6.4514-10.498-2.2809-11.381-9.6232 12.937 2.894 25.953 6.5146 39.448 10.677z" fill="#56A8F6"/>
<path d="m1991.3 2020.3c-0.42615 7.0918-2.3557 14.269 0.01416 22.096 1.1986 3.9591-2.4565 7.8196-6.9218 9.5554-3.0271 1.1768-5.9629 2.5889-9.667 3.9797 2.262-6.4536 5.1985-13.016 8.2573-19.521 2.4883-5.2915 5.123-10.514 8.3173-16.11z" fill="#56A8F6"/>
<path d="m2210 1949.1c-1.5852-0.91553-3.4277-2.5555-4.6472-4.5723-1.9514-3.228-0.85767-8.0457-5.3401-10.064-0.67334-0.30298-1.2041-1.6144-1.2566-2.4918-0.3269-5.4557-0.49878-10.921-0.71118-17.212 1.5076 0.26526 3.7214 1.0366 4.3853 2.5076 4.4299 9.816 9.4775 19.552 7.5698 31.832z" fill="#56A8F6"/>
<path d="m2118.7 2184c0.60864-6.5713 0.60669-13.902 8.5579-17.867 0.24072 7.0088-4.3416 12.113-8.5579 17.867z" fill="#56A8F6"/>
<path d="m1929.4 2126.3c0.58887 7.7129-1.5704 14.483-10.631 17.655 2.8496-5.7717 6.4316-11.56 10.631-17.655z" fill="#56A8F6"/>
<path d="m2046.7 2293.9c-0.68176-1.8357-0.54907-3.7971-0.70874-5.7341-0.38953-4.7258 1.9014-6.5408 7.1941-6.1702-1.3889 3.9277-3.5962 7.8589-6.4854 11.904z" fill="#56A8F6"/>
<path d="m2056.7 2279.9c-0.14014-8.7021-0.14014-8.7021 8.499-9.9102-2.0874 3.2708-4.9646 6.5491-8.499 9.9102z" fill="#56A8F6"/>
<path d="m2013.2 1964.1c0.9491 5.0131 0.40796 9.9359-4.5009 13.797 0.7843-4.4631 2.288-9.0481 4.5009-13.797z" fill="#56A8F6"/>
<path d="m2202.7 1971.7c-3.1531-5.1229-3.0022-5.4591 4.5566-9.6638-0.86328 3.0665-2.4172 6.2051-4.5566 9.6638z" fill="#56A8F6"/>
<path d="m2025.4 1930.4c3.0322 5.0629 2.8849 5.3878-4.651 9.5713 0.91541-3.0126 2.5209-6.0962 4.651-9.5713z" fill="#56A8F6"/>
<path d="m2166.8 2084c0.79883-3.8013 2.2935-7.7646 4.4973-11.854-0.79443 3.8132-2.2981 7.7524-4.4973 11.854z" fill="#56A8F6"/>
<path d="m2188.6 2023.7c0.87891-3.6038 2.3667-7.5394 4.5505-11.599-0.84985 3.6731-2.3958 7.47-4.5505 11.599z" fill="#56A8F6"/>
<path d="m1907.3 2160c0.47705 4.082-1.818 5.9458-6.5569 5.9688 1.4832-1.9612 3.6915-3.9338 6.5569-5.9688z" fill="#56A8F6"/>
<path d="m2136.6 2151.7c0.33008-2.7292 1.3013-5.7854 2.835-9.2461-0.3562 2.7034-1.2751 5.8113-2.835 9.2461z" fill="#56A8F6"/>
<path d="m1973.3 2058.1c-0.18005 1.8235-1.0463 3.7668-2.6033 5.8193 0.17847-1.8271 1.0479-3.7637 2.6033-5.8193z" fill="#56A8F6"/>
<path d="m1915.3 2150c3.9614 3.9407 0.37366 3.5374-2.6211 3.9451 0.22217-1.2791 1.1057-2.5635 2.6211-3.9451z" fill="#56A8F6"/>
<path d="m1939.3 2114c3.9531 3.9338 0.38428 3.5479-2.6211 3.9519 0.22229-1.2815 1.1055-2.5684 2.6211-3.9519z" fill="#56A8F6"/>
<path d="m2068.6 2265.7c-0.63916-2.9031-0.36938-5.8027 4.6328-5.7312-0.86621 1.8159-2.468 3.646-4.6328 5.7312z" fill="#56A8F6"/>
<path d="m2114.7 2192c0.17944-1.8259 1.041-3.7864 2.6003-5.8525-0.17407 1.8354-1.0461 3.7766-2.6003 5.8525z" fill="#56A8F6"/>
<path d="m2128.6 2165.7c0.31152-2.1509 1.2371-4.6145 2.7791-7.3911-0.31055 2.1506-1.2378 4.6145-2.7791 7.3911z" fill="#56A8F6"/>
<path d="m1935.4 2118.3c-0.29321 1.6501-1.1655 3.5803-2.7269 5.6152 0.25647-1.7085 1.2021-3.522 2.7269-5.6152z" fill="#56A8F6"/>
<path d="m1911.4 2154.3c-0.2998 1.6523-1.1799 3.5813-2.7538 5.606 0.26196-1.7124 1.2178-3.5208 2.7538-5.606z" fill="#56A8F6"/>
<path d="m2031.5 1906.4c3.6386 1.9733 1.4554 3.4846-0.90894 5.3114-0.23511-1.4646 0.072754-3.1855 0.90894-5.3114z" fill="#56A8F6"/>
<path d="m2094.7 2225.9c0.25293-1.2 1.1462-2.4895 2.6802-3.8635-0.25293 1.2017-1.1465 2.4878-2.6802 3.8635z" fill="#56A8F6"/>
<path d="m1969.3 2066c-0.25415 1.1992-1.1472 2.4968-2.6854 3.8779 0.25195-1.2041 1.1493-2.4917 2.6854-3.8779z" fill="#56A8F6"/>
<path d="m2003.5 1988.3c2.6904 1.4816 2.1519 2.7168-0.8905 3.6128-0.25549-1.0531 0.067505-2.17 0.8905-3.6128z" fill="#56A8F6"/>
<path d="m2132.7 2156c0.24683-1.1992 1.1316-2.5039 2.6609-3.8967-0.24487 1.2051-1.1338 2.4983-2.6609 3.8967z" fill="#56A8F6"/>
<path d="m2033.6 1900.2c0.24524 0.42163-0.10815 0.9375-1.0537 1.5518-0.26148-0.43054 0.087647-0.94922 1.0537-1.5518z" fill="#56A8F6"/>
<path d="m2066.4 2269.8c-0.23096-0.42432 0.13379-0.92896 1.083-1.5259 0.25195 0.43335-0.10522 0.94604-1.083 1.5259z" fill="#56A8F6"/>
<path d="m1961.6 2076.2c0.24976 0.42944-0.11011 0.95288-1.0775 1.5713-0.2583-0.43482 0.1001-0.95874 1.0775-1.5713z" fill="#56A8F6"/>
<path d="m973.43 889.56c-11.365 16.227-21.02 32.979-33.497 47.267-9.3375 10.694-15.674 23.206-24.85 33.898-9.165 10.681-16.221 23.141-24.761 34.398-6.9178 9.1189-16.888 14.414-27.175 18.977-9.0352 4.0077-16.939 0.8396-24.258-4.3449-4.5316-3.2095-8.1162-7.7899-14.131-8.6864-1.1267-0.16791-2.1409-1.5142-3.0815-2.4437-17.681-17.472-37.906-32.04-56.125-48.8-10.991-10.111-20.097-22.362-17.049-40.127 1.1403-6.6465 5.2555-10.795 6.8114-16.19 2.6167-9.0731 8.3832-15.768 13.425-23.042 4.303-6.2076 9.7905-11.583 14.255-17.692 11.808-16.156 23.34-32.514 35.002-48.777 1.1575-1.614 2.3918-3.1827 3.6983-4.6783 9.4958-10.872 17.397-22.895 25.311-34.911 0.54541-0.82806 1.1807-1.6355 1.916-2.2942 12.478-11.178 19.671-26.397 29.982-39.243 8.425-10.496 16.18-21.527 24.361-32.223 9.1445-11.954 18.618-23.661 27.593-35.74 5.3046-7.1389 9.5351-15.087 14.963-22.12 4.8801-6.3234 10.687-11.939 16.19-17.769 1.5729-1.6663 4.4533-2.6559 5.1147-4.528 2.8047-7.9387 11.287-10.592 15.348-17.255 0.65717-1.0782 1.7516-2.0552 2.8705-2.66 7.7756-4.2029 15.462-8.6238 23.498-12.267 3.3896-1.537 7.8137-2.4911 11.308-1.6944 5.0468 1.1506 8.9214 0.16956 11.181-3.8627 2.327-4.152 6.0607-5.3817 9.8077-6.0152 19.376-3.2759 38.731-4.2692 58.984 2.8504-2.2905 2.3039-4.1057 4.1296-6.6652 6.704 5.3398-0.47711 10.035-0.2926 14.392-1.4172 8.0173-2.0692 15.262-0.2406 21.839 3.827 11.279 6.9761 22.311 14.376 33.181 21.977 3.4668 2.4241 6.2462 5.916 9.0779 9.1489 11.166 12.748 24.953 23.453 30.639 40.49 1.0568 3.166 4.509 5.6553 7.1486 8.1466 7.1388 6.7378 14.842 12.927 21.544 20.063 5.6166 5.9808 9.7657 13.328 15.287 19.415 3.1616 3.4853 3.3127 6.7889 2.054 10.611 11.103 3.4097 18.347 11.004 25.123 19.24 4.5365 5.5145 8.4692 11.878 14.009 16.114 5.3361 4.0801 6.7936 8.4377 6.3363 14.429-0.11536 1.5101 0.45557 3.0726 0.84912 5.4415 2.7128-1.2284 4.702-2.1292 7.1637-3.2438 9.7113 10.573 20.614 20.488 29.04 32.186 7.8224 10.86 17.953 19.364 26.095 29.691 14.282 18.114 30.931 34.088 45.773 51.674 11.047 13.09 21.828 26.406 32.933 39.446 6.642 7.799 14.599 14.63 20.35 23.005 11.679 17.009 27.614 30.245 39.815 46.685 6.1663 8.3091 9.0321 18.156 11.172 28.167 0.18066 0.84509-0.27979 1.9512-0.72314 2.787-6.7147 12.66-11.967 26.132-22.346 36.66-12.57 12.75-24.625 26.006-37.021 38.93-6.3882 6.6599-12.914 13.198-19.598 19.56-5.855 5.5728-12.378 9.7131-21.13 8.7789-4.2836-0.45715-8.6589-0.2002-12.986-0.062134-4.2355 0.13489-7.2227-1.0125-10.183-4.6664-3.5817-4.4208-9.0682-7.2406-13.098-11.371-5.0281-5.1533-9.4257-10.924-14.066-16.453-2.0732-2.4702-3.9703-5.0951-6.1312-7.4834-3.5333-3.9052-7.3483-7.5597-10.814-11.521-14.139-16.159-28.236-32.355-42.26-48.614-10.564-12.247-20.983-24.62-31.488-36.919-4.9532-5.7991-9.9829-11.533-14.932-17.336-15.707-18.415-31.453-36.797-47.065-55.292-11.526-13.654-21.915-28.229-34.665-40.905-6.9427-6.9026-13.185-14.676-18.763-22.735-4.7759-6.9009-12.211-12.077-14.022-21.054-0.33081-1.6395-2.0973-3.2537-3.589-4.3534-13.468-9.9279-24.635-21.736-32.323-36.826-4.6584-9.1441-13.136-14.885-21.669-19.858-6.7852-3.9548-22.559 1.4119-27.635 8.2082-2.9365 3.9324-6.0903 7.7067-8.9312 11.705-2.0773 2.9236-7.1113 4.4624-4.6099 9.8052 0.35462 0.75738-1.5826 2.6809-2.5856 3.9661-8.5118 10.908-17.32 21.597-25.494 32.751-5.7772 7.8838-10.449 16.57-16.083 24.568-6.0966 8.6552-12.737 16.927-19.639 25.899z" fill="#AD86F7"/>
<path d="m1419.5 2167.4c-11.896 10.156-24.113 16.831-39.897 16.811-178.25-0.22583-356.5-0.40137-534.74 0.19214-21.653 0.072022-33.168-11.171-41.372-28.033-5.3475-10.99-8.0518-22.867-7.7209-35.66 0.73187-28.301 0.049133-56.635 0.29871-84.953 0.072693-8.2471 1.305-16.487 2.1121-24.72 0.12555-1.2808 0.68073-2.5782 1.2773-3.7452 7.5372-14.745 16.746-28.114 33.06-34.08 5.7775-2.1128 12.31-3.0173 18.499-3.0234 158.59-0.15552 317.18-0.17236 475.77 0.038452 8.1821 0.010864 16.358 0.098633 24.545 0.061402 12.908-0.058716 26.009 0.033935 38.689 2.1195 17.438 2.8677 28.707 14.449 35.197 30.565 3.2316 8.0245 5.0208 16.299 4.9534 25.209-0.11255 14.914 1.1317 29.833 1.3815 44.758 0.093384 5.5789-1.3993 11.172-1.4744 16.768-0.22461 16.764 0.44641 33.559-0.3346 50.29-0.44983 9.6357-4.1904 18.742-10.243 27.403z" fill="#02CB94"/>
<path d="m1832.4 1826c-1.969 6.5218-2.925 12.653-5.6906 17.815-7.8103 14.579-20.01 22.311-37.045 22.284-82.311-0.12915-164.63 0.50708-246.93-0.43311-24.542-0.2804-33.806-13.636-36.783-35.3-3.6001-26.197-1.6113-52.488-1.8052-78.731-0.11267-15.24 1.2448-30.49 1.851-45.738 0.29285-7.3656 3.6001-13.478 8.2666-18.734 1.3147-1.4807 4.6143-1.1991 7.7362-1.8873-0.68079-2.5459 0.40418-5.7869 4.5797-7.6346 3.6061-1.5958 6.8275-4.574 10.541-5.3046 7.1084-1.3983 14.455-2.3225 21.686-2.2209 19.918 0.2804 39.825 1.6106 59.741 1.7136 14.244 0.073608 28.49-1.3557 42.746-1.7092 4.906-0.12183 9.8396 1.0109 14.766 1.5106 1.9834 0.20105 4.0154 0.5304 5.9705 0.31116 24.834-2.7838 49.659 1.7665 74.483 0.026001 7.5894-0.53198 15.163-1.2988 22.754-1.7953 15.595-1.0198 29.581 2.9817 41.46 13.49 5.8177 5.1467 7.705 12.379 9.6322 19.297 1.9365 6.951 3.4088 14.274 3.4993 21.454 0.38196 30.32 0.21668 60.648 0.1156 90.973-0.010864 3.2617-0.90454 6.5205-1.5753 10.614z" fill="#4FA8F6"/>
<path d="m1504 2030c-3.67e-4 -14.321-0.21008-27.65 0.068969-40.969 0.20252-9.6703 1.9148-19.178 6.4343-27.86 6.2156-11.94 16.854-17.795 29.702-18.977 14.512-1.3354 29.128-1.9343 43.705-2.0548 10.239-0.084717 20.488 1.6743 30.733 1.6777 10.101 0.003296 20.202-1.6552 30.305-1.6781 9.2435-0.021118 18.497 1.8094 27.734 1.7002 22.574-0.26685 45.138-1.4963 67.712-1.707 11.236-0.10474 22.479 1.3292 33.731 1.7778 7.2034 0.28723 14.438-0.20557 21.64 0.097656 12.96 0.54553 21.374 8.0619 28.795 18.083 8.5039 11.484 9.7512 24.234 9.5338 37.69-0.1991 12.323 0.17761 24.656-0.1117 36.975-0.48328 20.575-0.20056 41.253-2.2517 61.686-2.4426 24.333-16.395 38.803-44.1 39.384-38.293 0.80225-76.615 0.22314-114.92 0.22363-40.641 7.33e-4 -81.284-0.18652-121.92 0.10303-10.051 0.071534-19.368-2.9055-27.665-7.2324-7.8743-4.1064-12.664-12.427-14.881-21.471-1.26-5.1389-2.217-10.353-3.2731-15.541-0.32812-1.6125-1.1339-3.4395-0.69177-4.8442 2.0631-6.5562 1.033-12.873 0.36328-19.567-1.2073-12.067-0.52698-24.323-0.63513-37.496z" fill="#4FA9F6"/>
<path d="m1461.1 643.44c-6.3636 9.0229-14.321 14.751-23.172 20.208-26.992 16.643-55.995 18.794-86.33 14.68-16-2.1699-29.972-8.2572-44.036-16.53-14.087-8.287-26.507-17.595-35.375-30.847-8.5414-12.763-18.24-25.199-22.199-40.458-1.9772-7.6207-3.2103-15.552-3.722-23.412-1.3-19.973-0.84241-39.848 6.6315-58.885 2.0498-5.2216 3.6052-10.673 6.0491-15.697 5.1063-10.498 11.385-19.965 21.651-26.57 5.134-3.3036 8.8241-8.7779 13.455-12.951 14.035-12.647 29.911-21.375 49.178-23.086 11.178-0.99243 22.308-3.6532 33.454-3.6156 14.571 0.049133 28.898 3.0722 42.341 9.2384 1.8068 0.82877 3.6125 1.8376 5.5273 2.2237 10.947 2.2072 19.678 8.1006 27.412 15.857 1.3239 1.3278 3.4465 1.8309 4.8801 3.0818 10.529 9.1872 19.144 19.88 25.215 32.54 1.2849 2.6788 2.4026 5.5086 4.1122 7.9008 7.8323 10.96 9.1642 23.973 11.722 36.572 1.0476 5.1594 2.3166 10.577 1.78 15.698-1.6078 15.343-0.28626 31.184-7.1779 45.745-1.5389 3.2514-1.8247 7.1142-3.4663 10.293-1.5126 2.9294-4.5507 5.077-6.0321 8.0151-1.3929 2.7625-1.2654 6.2623-2.4888 9.1486-1.0038 2.3676-2.7959 4.5164-4.6132 6.4009-4.6199 4.7911-9.4498 9.3798-14.795 14.45m-59.894-137.83c-13.236-8.88-28.095-9.736-42.754-6.3783-10.477 2.3998-20.631 7.1648-26.766 17.307-7.6316 12.616-16.826 24.731-11.755 40.982 0.1897 0.60797 0.021484 1.3234 0.045044 1.9879 0.51428 14.498 6.5876 26.43 18.059 34.958 4.7842 3.5565 8.162 7.3234 9.2285 13.525 10.271 0 19.88-0.080933 29.488 0.026306 7.306 0.081543 14.581 0.73425 20.16-5.7404 1.2979-1.5062 4.2909-1.4196 6.2582-2.5095 3.6436-2.0187 8.6978-3.5642 10.299-6.7479 2.9703-5.907 8.0922-11.416 9.4142-17.067 3.6238-15.49 13.377-31.951-1.3883-47.129-0.22339-0.22968-0.39551-0.5578-0.4773-0.86993-2.6708-10.193-8.687-17.526-19.812-22.344z" fill="#AB85F8"/>
<path d="m2145.8 1565.4c12.216-5.4153 24.093-4.6794 35.611-0.99463 3.5862 1.1473 6.7576 5.2374 8.959 8.7146 4.2334 6.6864 7.3071 14.101 11.459 20.847 7.8882 12.816 12.472 26.878 16.995 41.069 1.177 3.6931 4.9299 6.4907 7.0671 9.9657 8.8196 14.341 17.651 28.681 26.092 43.245 2.9778 5.1383 5.4324 10.747 7.0977 16.442 2.9277 10.015-3.6602 25.902-12.846 31.23-17.524 10.164-35.83 18.505-56.044 21.811-13.378 2.1884-24.111-3.4237-28.964-15.921-6.3047-16.235-15.597-30.476-24.77-44.98-4.0498-6.4039-6.9021-13.559-10.398-20.321-7.1589-13.846-14.635-27.535-21.487-41.531-3.9334-8.033-7.7395-16.31-10.079-24.893-2.6377-9.6779 0.52881-18.237 8.6799-24.78 8.7822-7.0492 19.335-9.8939 29.65-13.479 4.2856-1.4894 8.2429-3.9244 12.978-6.4255z" fill="#4BA8F6"/>
<path d="m2139 1243.1c-0.090332 0.05017 0.090332-0.050293 0 0z" fill="#E185AF"/>
<path d="m1857.1 2362.7c1.5889-3.9824 2.7437-7.3586 4.0154-11.076-5.9796-4.811-8.1184 2.5952-12.893 4.7195-4.1838-11.815-8.2373-23.262-12.691-35.84 1.972-2.3547 10.237 1.7998 9.936-6.6802-2.7992-1.3489-5.8529-2.8203-8.9757-4.325 1.1764-4.7634 5.4-4.1433 7.7393-6.0051 5.8091-4.6238 11.452-8.0959 19.493-8.0493 5.3575 0.03125 11.628-10.106 12.256-16.677 0.62866-6.5818 1.1608-13.189 2.2035-19.71 1.2728-7.9597 8.6892-13.003 16.723-11.658 3.2207 0.53906 6.5573 1.0515 9.5244 2.3179 9.1807 3.9185 19.198-0.91455 21.392-10.634 2.3453-10.39 5.8018-19.984 14.621-27.108 2.3041-1.8611 2.3547-6.4326 3.6029-9.697 2.3124-6.0483 1.7218-10.69-3.4012-15.807-5.1807-5.1746-2.6071-10.209 4.7572-10.326 6.9701-0.1106 13.658-1.582 18.469-6.1221 4.9039-4.6284 10.827-8.8809 12.274-16.52 1.7814-9.3987 3.8579-10.428 13.958-11.681 4.0031-0.49609 7.7697-2.8989 12.793-4.8889 7.0654 1.5002 15.221 7.5366 25.062 2.5847-1.0042-2.7073-1.5032-4.6326-2.3994-6.3511-2.0677-3.9648-2.1892-7.5442 1.1743-10.935 4.394-4.4307 4.6613-9.5554 3.5275-15.574-1.1848-6.2898-0.85132-12.865-1.2164-19.999-5.2512 1.2083-10.224 2.3525-15.281 3.5161-2.9966-5.947-1.6052-8.4961 3.7653-11.372 5.6427-3.0212 10.435-8.0024 14.787-12.855 1.4574-1.6255 0.76025-5.5291 0.44714-8.3237-0.65857-5.877-0.60816-6.074 7.4954-7.1106 2.6487 2.9412 1.3368 9.248 8.0066 9.5776 7.584 0.37476 9.7554-0.22559 13.352-7.4014 1.7817-3.5554 3.1111-7.3348 4.7449-10.968 1.4885-3.3097 4.1218-4.502 7.3047-2.728 2.8613 1.5946 5.8508 3.3973 7.9573 5.8252 5.8613 6.7556 12.385 11.747 21.88 11.512 1.1152-0.027588 2.2598 1.1318 3.8201 1.9722-0.3479 2.6667-0.67676 5.1875-1.1621 8.9087 3.3884 0.94238 6.6724 2.4087 10.047 2.6602 4.6846 0.34985 7.7241 1.6934 7.7412 6.9333 0.010742 3.2671-0.87012 5.7751-4.2949 7.0593-1.762 0.66064-4.5049 1.8569-4.6772 3.1052-1.4148 10.238-10.009 10.959-17.189 13.652-0.51684 0.19385-0.81567 0.96851-1.2898 1.5664-0.32764 4.1567 2.9023 3.3218 5.3608 3.8906 6.9878 1.6162 9.3179 4.8958 9.2019 13.617-2.5449-0.3125-5.0315-0.38208-7.387-0.97485-2.2302-0.56104-4.3328-2.3889-6.4729-2.3586-2.7297 0.038575-6.5576 0.59131-7.8372 2.3948-1.2083 1.7034-0.09082 5.4229 0.69702 8.0476 0.5188 1.7288 2.2654 3.0894 3.5259 4.6956-7.6899 3.5081-11.178 1.72-17.12-8.1643-2.8628 3.5276-5.3713 7.5906-8.7966 10.615-5.3811 4.7522-8.9485-0.64648-12.588-3.3115-12.541 3.0193-12.831 3.3552-13.108 14.918-0.22192 9.2488-2.6494 12.727-11.599 12.152-8.2266-0.52881-12.482 2.7678-14.659 9.8181-0.81433 2.6372-1.1432 5.7664-0.55005 8.4153 0.85058 3.7981 2.7487 7.3621 3.9368 10.362 13.561 7.1731 25.945-0.1709 39.39-2.6782 1.2388 3.5642 2.6995 6.5234 3.2402 9.6421 0.65356 3.7703-2.9321 8.8955-5.666 7.8083-5.5513-2.2075-9.2784 2.134-14.585 2.8066-0.97058-3.2515-1.8625-6.24-2.7318-9.1521-6.6487 0.5022-9.1771 4.0762-5.1884 7.1096 10.735 8.1638 9.8575 21.28 14.739 31.833 2.394 5.1753 1.1843 12.097 1.2056 18.229 0.004883 1.3672-1.4253 3.0247-2.6189 4.0586-3.977 3.4451-8.1472 6.667-11.976 9.7588-3.7705-1.2761-6.8315-2.312-9.5929-3.2466-0.97827 0.79028-1.842 1.1277-1.9506 1.6289-2.3601 10.901-10.005 12.728-19.624 12.034-3.1451-0.22681-6.6864 0.59229-9.5559 1.9617-5.2189 2.4902-5.5481 7.0432-1.3395 11.191 0.23145 0.22803 0.66211 0.29712 0.81873 0.55176 1.2611 2.0498 2.5294 4.1016 3.6007 6.2498 0.075683 0.15161-1.3276 1.4041-2.1638 1.5835-3.4297 0.73633-5.6503-0.87866-7.2266-3.8909-1.3438-2.5676-2.988-4.9783-4.269-7.0801-4.1073 2.657-8.5492 4.1279-10.694 7.2019-4.887 7.0029-10.604 12.64-17.634 17.495-1.9131 1.3213-2.1107 7.2559-1.0302 10.352 2.4501 7.0217-0.51831 10.609-6.1141 13.576-0.70886 0.37573-0.97485 1.5874-1.738 2.9226 3.8611 3.2722 11.612 0.13037 12.563 7.4873-8.2255 4.2124-18.67 2.449-27.22-5.1948-3.4072 5.114-8.121 8.4082-14.546 7.9482-2.4259-0.17334-4.8594-0.65967-7.2168-1.2798-4.0325-1.0608-4.3187-0.95581-7.629 5.0217 0.8623 0.37232 1.8608 1.2295 2.5114 1.0173 5.9869-1.948 6.9294 1.6362 7.1085 6.2236 0.11658 2.9868-0.68774 6.5242 0.62183 8.8613 5.8538 10.447-1.311 19.073-3.356 28.379-0.21912 0.99683-1.9524 2.4753-2.7636 2.3464-1.3839-0.21973-3.6482-1.4661-3.7112-2.4041-0.56445-8.3933-6.0002-9.1643-12.599-8.7952-1.5059 0.084229-3.7158-0.50757-4.5118-1.5901-4.8622-6.6094-10.92-2.3376-16.454-1.9448-1.173 0.083252-2.7173 1.8474-3.219 3.1685-1.4769 3.8887-4.4181 4.5281-7.9911 4.5027-7.0435-0.050537-8.8312-2.6138-6.3105-9.3027 0.6958-1.8459 1.5114-3.6465 3.8385-7.4497-1.5771-0.64233-3.2775-1.0916-4.6903-1.9919-1.016-0.64746-1.6482-1.8972-3.269-3.877 3.3362-2.2231 6.2239-4.1472 9.5458-6.6782m186.38-291.59c-1.1365 7.1011-2.5319 14.178-3.1957 21.323-0.13623 1.4658 2.4642 3.186 3.8031 4.7891 1.2363-1.342 3.0062-2.4827 3.6039-4.0659 1.5092-3.9978 2.8234-8.1335 3.6007-12.328 0.99023-5.3438 1.6814-10.827-1.863-19.137-2.4709 3.7332-3.8809 5.8633-5.949 9.4182m-158.35 284.83c-1.6161-2.0381-2.0638-5.6697-6.1234-4.7964 2.3381 14.883 5.0758 18.6 16.035 20.071 2.328 0.3125 5.3438-1.5666 7.3766-3.2437 0.99072-0.81763 1.191-4.6204 0.45215-5.1084-1.8639-1.2312-4.8491-2.3926-6.694-1.7109-5.0099 1.8506-7.3187-1.3538-11.047-5.2112m51.203-75.556c-4.6138-0.80957-7.9995 0.43286-8.2367 5.6782-0.16638 3.6814 0.24524 7.3889 0.47217 12.854 3.6376-3.0583 5.5209-4.6418 7.2628-6.1064 3.0645 1.1062 5.8666 2.1177 8.901 3.2131 1.8488-11.636 1.8488-11.636-8.3993-15.638m125.46-197.97c2.5254 1.7573 4.3811 0.76538 5.4829-1.6584 2.2441-4.9373 0.35425-8.5325-7.1458-12.249 0.25342 4.6738 0.47144 8.6919 1.6628 13.908m-102.1 198.56c-1.5931-4.095-3.1864-8.1899-4.7795-12.285-0.84021 0.13647-1.6803 0.27319-2.5205 0.40991 0 3.6868-0.60608 7.509 0.1792 11.02 0.71558 3.2 3.2743 5.0435 7.1208 0.85474m-77.134 38.312c0.58179-0.28857 1.449-0.42578 1.6967-0.89209 1.1362-2.1399 2.0992-4.3716 3.1246-6.5703-1.1018-0.47241-2.3303-1.5232-3.2828-1.3147-3.5911 0.78686-4.3459 3.5386-3.8354 6.7896 0.09314 0.59302 0.59766 1.1216 2.297 1.9875z" fill="#56A8F6"/>
<path d="m1401.9 505.95c10.451 4.4741 16.467 11.808 19.138 22.001 0.081787 0.31213 0.25391 0.64026 0.4773 0.86993 14.766 15.177 5.0121 31.639 1.3883 47.129-1.322 5.6508-6.4438 11.16-9.4142 17.067-1.601 3.1837-6.6552 4.7292-10.299 6.7479-1.9673 1.0899-4.9603 1.0034-6.2582 2.5095-5.5791 6.4747-12.854 5.822-20.16 5.7404-9.6075-0.10724-19.217-0.026306-29.488-0.026306-1.0665-6.2015-4.4443-9.9684-9.2285-13.525-11.472-8.5281-17.545-20.46-18.059-34.958-0.02356-0.66449 0.14465-1.3799-0.045044-1.9879-5.071-16.251 4.1233-28.365 11.755-40.982 6.1346-10.142 16.289-14.907 26.766-17.307 14.659-3.3577 29.518-2.5017 43.428 6.7216m-74.615 29.104c-6.9395 21.786-2.865 40.685 14.627 56.121 25.84 22.804 69.906 9.2098 77.445-24.346 1.786-7.9489 2.0632-16.854 0.48596-24.814-3.4486-17.403-13.539-30.658-31.027-35.84-23.302-6.904-49.068-0.78857-61.531 28.879z" fill="#AB94D9"/>
<path d="m2043.8 2070.4c1.739-2.8425 3.1489-4.9727 5.6199-8.7058 3.5444 8.3101 2.8533 13.793 1.863 19.137-0.77734 4.1941-2.0916 8.3298-3.6007 12.328-0.59766 1.5833-2.3676 2.7239-3.6039 4.0659-1.3389-1.603-3.9393-3.3232-3.8031-4.7891 0.66382-7.1448 2.0592-14.222 3.5248-22.035z" fill="#50A8F4"/>
<path d="m1885.6 2356.5c3.2537 3.301 5.5625 6.5054 10.572 4.6548 1.8448-0.68164 4.8301 0.47974 6.694 1.7109 0.73889 0.48804 0.53857 4.2908-0.45215 5.1084-2.0328 1.677-5.0486 3.5562-7.3766 3.2437-10.96-1.4709-13.697-5.188-16.035-20.071 4.0596-0.87329 4.5073 2.7583 6.5978 5.3528z" fill="#50A8F4"/>
<path d="m1937.1 2280.7c9.4954 3.7156 9.4954 3.7156 7.6466 15.351-3.0344-1.0955-5.8365-2.1069-8.901-3.2131-1.7419 1.4646-3.6252 3.0481-7.2628 6.1064-0.22693-5.4646-0.63855-9.1721-0.47217-12.854 0.23718-5.2454 3.6229-6.4878 8.9894-5.3911z" fill="#50A8F4"/>
<path d="m2061.3 2081.8c-0.70459-4.6167-0.92261-8.6348-1.176-13.309 7.5 3.7168 9.3899 7.312 7.1458 12.249-1.1018 2.4238-2.9575 3.4158-5.9697 1.0593z" fill="#50A8F4"/>
<path d="m1959.5 2281.7c-3.646 3.4658-6.2047 1.6223-6.9203-1.5776-0.78528-3.5112-0.1792-7.3335-0.1792-11.02 0.84021-0.13672 1.6803-0.27344 2.5205-0.40991 1.5931 4.095 3.1864 8.1899 4.579 13.008z" fill="#50A8F4"/>
<path d="m1881.9 2319.1c-1.007-0.71216-1.5115-1.2407-1.6046-1.8337-0.5105-3.251 0.24438-6.0027 3.8354-6.7896 0.95252-0.2085 2.181 0.84228 3.2828 1.3147-1.0254 2.1987-1.9884 4.4304-3.1246 6.5703-0.24768 0.46631-1.1149 0.60352-2.389 0.73828z" fill="#50A8F4"/>
<path d="m1327.6 534.33c12.153-28.943 37.918-35.058 61.221-28.154 17.488 5.1813 27.578 18.436 31.027 35.84 1.5773 7.9603 1.3 16.866-0.48596 24.814-7.5388 33.556-51.604 47.15-77.445 24.346-17.492-15.436-21.566-34.335-14.317-56.846z" fill="#FAF9F8"/>
</svg>
